<?xml version='1.0' encoding='UTF-8'?>
<svg xmlns="http://www.w3.org/2000/svg" xmlns:xlink="http://www.w3.org/1999/xlink" xml:space="preserve" overflow="hidden" viewBox="0 0 1395.0 3031.0">
  <defs>
    <linearGradient x1="1122.5" y1="639.5" x2="1291.5" y2="639.5" gradientUnits="userSpaceOnUse" spreadMethod="reflect" id="fill0">
      <stop offset="0" stop-color="#FFCC66"/>
      <stop offset="0.11" stop-color="#FFCC66"/>
      <stop offset="0.539" stop-color="#FFFFFF"/>
      <stop offset="0.89" stop-color="#FFCC66"/>
      <stop offset="1" stop-color="#FFCC66"/>
    </linearGradient>
    <linearGradient x1="1122.5" y1="1110.5" x2="1291.5" y2="1110.5" gradientUnits="userSpaceOnUse" spreadMethod="reflect" id="fill1">
      <stop offset="0" stop-color="#FFCC66"/>
      <stop offset="0.11" stop-color="#FFCC66"/>
      <stop offset="0.539" stop-color="#FFFFFF"/>
      <stop offset="0.89" stop-color="#FFCC66"/>
      <stop offset="1" stop-color="#FFCC66"/>
    </linearGradient>
    <linearGradient x1="1122.5" y1="1506.5" x2="1291.5" y2="1506.5" gradientUnits="userSpaceOnUse" spreadMethod="reflect" id="fill2">
      <stop offset="0" stop-color="#FFCC66"/>
      <stop offset="0.11" stop-color="#FFCC66"/>
      <stop offset="0.539" stop-color="#FFFFFF"/>
      <stop offset="0.89" stop-color="#FFCC66"/>
      <stop offset="1" stop-color="#FFCC66"/>
    </linearGradient>
    <linearGradient x1="1122.5" y1="1977.5" x2="1291.5" y2="1977.5" gradientUnits="userSpaceOnUse" spreadMethod="reflect" id="fill3">
      <stop offset="0" stop-color="#FFCC66"/>
      <stop offset="0.11" stop-color="#FFCC66"/>
      <stop offset="0.539" stop-color="#FFFFFF"/>
      <stop offset="0.89" stop-color="#FFCC66"/>
      <stop offset="1" stop-color="#FFCC66"/>
    </linearGradient>
    <linearGradient x1="1122.5" y1="2512.5" x2="1291.5" y2="2512.5" gradientUnits="userSpaceOnUse" spreadMethod="reflect" id="fill4">
      <stop offset="0" stop-color="#FFCC66"/>
      <stop offset="0.11" stop-color="#FFCC66"/>
      <stop offset="0.539" stop-color="#FFFFFF"/>
      <stop offset="0.89" stop-color="#FFCC66"/>
      <stop offset="1" stop-color="#FFCC66"/>
    </linearGradient>
  </defs>
  <g transform="translate(-635 -94)">
    <path d="M1699.71 3072.49 1697.42 3072.49 1697.42 3070.2 1699.71 3070.2ZM1695.13 3072.49 1692.83 3072.49 1692.83 3070.2 1695.13 3070.2ZM1690.54 3072.49 1688.25 3072.49 1688.25 3070.2 1690.54 3070.2ZM1685.96 3072.49 1683.67 3072.49 1683.67 3070.2 1685.96 3070.2ZM1681.38 3072.49 1679.08 3072.49 1679.08 3070.2 1681.38 3070.2ZM1676.79 3072.49 1674.5 3072.49 1674.5 3070.2 1676.79 3070.2ZM1672.21 3072.49 1669.92 3072.49 1669.92 3070.2 1672.21 3070.2ZM1667.63 3072.49 1665.33 3072.49 1665.33 3070.2 1667.63 3070.2ZM1663.04 3072.49 1660.75 3072.49 1660.75 3070.2 1663.04 3070.2ZM1658.46 3072.49 1656.17 3072.49 1656.17 3070.2 1658.46 3070.2ZM1653.88 3072.49 1651.58 3072.49 1651.58 3070.2 1653.88 3070.2ZM1649.29 3072.49 1647 3072.49 1647 3070.2 1649.29 3070.2ZM1644.71 3072.49 1642.42 3072.49 1642.42 3070.2 1644.71 3070.2ZM1640.13 3072.49 1637.83 3072.49 1637.83 3070.2 1640.13 3070.2ZM1635.54 3072.49 1633.25 3072.49 1633.25 3070.2 1635.54 3070.2ZM1630.96 3072.49 1628.67 3072.49 1628.67 3070.2 1630.96 3070.2ZM1626.38 3072.49 1624.08 3072.49 1624.08 3070.2 1626.38 3070.2ZM1621.79 3072.49 1619.5 3072.49 1619.5 3070.2 1621.79 3070.2ZM1617.21 3072.49 1614.92 3072.49 1614.92 3070.2 1617.21 3070.2ZM1612.63 3072.49 1610.33 3072.49 1610.33 3070.2 1612.63 3070.2ZM1608.04 3072.49 1605.75 3072.49 1605.75 3070.2 1608.04 3070.2ZM1603.46 3072.49 1601.17 3072.49 1601.17 3070.2 1603.46 3070.2ZM1598.88 3072.49 1596.58 3072.49 1596.58 3070.2 1598.88 3070.2ZM1594.29 3072.49 1592 3072.49 1592 3070.2 1594.29 3070.2ZM1589.71 3072.49 1587.42 3072.49 1587.42 3070.2 1589.71 3070.2ZM1585.13 3072.49 1582.83 3072.49 1582.83 3070.2 1585.13 3070.2ZM1580.54 3072.49 1578.25 3072.49 1578.25 3070.2 1580.54 3070.2ZM1575.96 3072.49 1573.67 3072.49 1573.67 3070.2 1575.96 3070.2ZM1571.38 3072.49 1569.08 3072.49 1569.08 3070.2 1571.38 3070.2ZM1566.79 3072.49 1564.5 3072.49 1564.5 3070.2 1566.79 3070.2ZM1562.21 3072.49 1559.92 3072.49 1559.92 3070.2 1562.21 3070.2ZM1557.63 3072.49 1555.33 3072.49 1555.33 3070.2 1557.63 3070.2ZM1553.04 3072.49 1550.75 3072.49 1550.75 3070.2 1553.04 3070.2ZM1548.46 3072.49 1546.17 3072.49 1546.17 3070.2 1548.46 3070.2ZM1543.88 3072.49 1541.58 3072.49 1541.58 3070.2 1543.88 3070.2ZM1539.29 3072.49 1537 3072.49 1537 3070.2 1539.29 3070.2ZM1534.71 3072.49 1532.42 3072.49 1532.42 3070.2 1534.71 3070.2ZM1530.13 3072.49 1527.83 3072.49 1527.83 3070.2 1530.13 3070.2ZM1525.54 3072.49 1523.25 3072.49 1523.25 3070.2 1525.54 3070.2ZM1520.96 3072.49 1518.67 3072.49 1518.67 3070.2 1520.96 3070.2ZM1516.38 3072.49 1514.08 3072.49 1514.08 3070.2 1516.38 3070.2ZM1511.79 3072.49 1509.5 3072.49 1509.5 3070.2 1511.79 3070.2ZM1507.21 3072.49 1504.92 3072.49 1504.92 3070.2 1507.21 3070.2ZM1502.63 3072.49 1500.33 3072.49 1500.33 3070.2 1502.63 3070.2ZM1498.04 3072.49 1495.75 3072.49 1495.75 3070.2 1498.04 3070.2ZM1493.46 3072.49 1491.17 3072.49 1491.17 3070.2 1493.46 3070.2ZM1488.88 3072.49 1486.58 3072.49 1486.58 3070.2 1488.88 3070.2ZM1484.29 3072.49 1482 3072.49 1482 3070.2 1484.29 3070.2ZM1479.71 3072.49 1477.42 3072.49 1477.42 3070.2 1479.71 3070.2ZM1475.13 3072.49 1472.83 3072.49 1472.83 3070.2 1475.13 3070.2ZM1470.54 3072.49 1468.25 3072.49 1468.25 3070.2 1470.54 3070.2ZM1465.96 3072.49 1463.67 3072.49 1463.67 3070.2 1465.96 3070.2ZM1461.38 3072.49 1459.08 3072.49 1459.08 3070.2 1461.38 3070.2ZM1456.79 3072.49 1454.5 3072.49 1454.5 3070.2 1456.79 3070.2ZM1452.21 3072.49 1449.92 3072.49 1449.92 3070.2 1452.21 3070.2ZM1447.63 3072.49 1445.33 3072.49 1445.33 3070.2 1447.63 3070.2ZM1443.04 3072.49 1440.75 3072.49 1440.75 3070.2 1443.04 3070.2ZM1438.46 3072.49 1436.17 3072.49 1436.17 3070.2 1438.46 3070.2ZM1433.88 3072.49 1431.58 3072.49 1431.58 3070.2 1433.88 3070.2ZM1429.29 3072.49 1427 3072.49 1427 3070.2 1429.29 3070.2ZM1424.71 3072.49 1422.42 3072.49 1422.42 3070.2 1424.71 3070.2ZM1420.13 3072.49 1417.83 3072.49 1417.83 3070.2 1420.13 3070.2ZM1415.54 3072.49 1413.25 3072.49 1413.25 3070.2 1415.54 3070.2ZM1410.96 3072.49 1408.67 3072.49 1408.67 3070.2 1410.96 3070.2ZM1406.38 3072.49 1404.08 3072.49 1404.08 3070.2 1406.38 3070.2ZM1401.79 3072.49 1399.5 3072.49 1399.5 3070.2 1401.79 3070.2ZM1397.21 3072.49 1394.92 3072.49 1394.92 3070.2 1397.21 3070.2ZM1392.63 3072.49 1390.33 3072.49 1390.33 3070.2 1392.63 3070.2ZM1388.04 3072.49 1385.75 3072.49 1385.75 3070.2 1388.04 3070.2ZM1383.46 3072.49 1381.17 3072.49 1381.17 3070.2 1383.46 3070.2ZM1378.88 3072.49 1376.58 3072.49 1376.58 3070.2 1378.88 3070.2ZM1374.29 3072.49 1372 3072.49 1372 3070.2 1374.29 3070.2ZM1369.71 3072.49 1367.42 3072.49 1367.42 3070.2 1369.71 3070.2ZM1365.13 3072.49 1362.83 3072.49 1362.83 3070.2 1365.13 3070.2ZM1360.54 3072.49 1358.25 3072.49 1358.25 3070.2 1360.54 3070.2ZM1355.96 3072.49 1353.67 3072.49 1353.67 3070.2 1355.96 3070.2ZM1351.38 3072.49 1349.08 3072.49 1349.08 3070.2 1351.38 3070.2ZM1346.79 3072.49 1344.5 3072.49 1344.5 3070.2 1346.79 3070.2ZM1342.21 3072.49 1339.92 3072.49 1339.92 3070.2 1342.21 3070.2ZM1337.63 3072.49 1335.33 3072.49 1335.33 3070.2 1337.63 3070.2ZM1333.04 3072.49 1330.75 3072.49 1330.75 3070.2 1333.04 3070.2ZM1328.46 3072.49 1326.17 3072.49 1326.17 3070.2 1328.46 3070.2ZM1323.88 3072.49 1321.58 3072.49 1321.58 3070.2 1323.88 3070.2ZM1319.29 3072.49 1317 3072.49 1317 3070.2 1319.29 3070.2ZM1314.71 3072.49 1312.42 3072.49 1312.42 3070.2 1314.71 3070.2ZM1310.13 3072.49 1307.83 3072.49 1307.83 3070.2 1310.13 3070.2ZM1305.54 3072.49 1303.25 3072.49 1303.25 3070.2 1305.54 3070.2ZM1300.96 3072.49 1298.67 3072.49 1298.67 3070.2 1300.96 3070.2ZM1296.38 3072.49 1294.08 3072.49 1294.08 3070.2 1296.38 3070.2ZM1291.79 3072.49 1289.5 3072.49 1289.5 3070.2 1291.79 3070.2ZM1287.21 3072.49 1284.92 3072.49 1284.92 3070.2 1287.21 3070.2ZM1282.63 3072.49 1280.33 3072.49 1280.33 3070.2 1282.63 3070.2ZM1278.04 3072.49 1275.75 3072.49 1275.75 3070.2 1278.04 3070.2ZM1273.46 3072.49 1271.17 3072.49 1271.17 3070.2 1273.46 3070.2ZM1268.88 3072.49 1266.58 3072.49 1266.58 3070.2 1268.88 3070.2ZM1264.29 3072.49 1262 3072.49 1262 3070.2 1264.29 3070.2ZM1259.71 3072.49 1257.42 3072.49 1257.42 3070.2 1259.71 3070.2ZM1255.13 3072.49 1252.83 3072.49 1252.83 3070.2 1255.13 3070.2ZM1250.54 3072.49 1248.25 3072.49 1248.25 3070.2 1250.54 3070.2ZM1245.96 3072.49 1243.67 3072.49 1243.67 3070.2 1245.96 3070.2ZM1241.38 3072.49 1239.08 3072.49 1239.08 3070.2 1241.38 3070.2ZM1236.79 3072.49 1234.5 3072.49 1234.5 3070.2 1236.79 3070.2ZM1232.21 3072.49 1229.92 3072.49 1229.92 3070.2 1232.21 3070.2ZM1227.63 3072.49 1225.33 3072.49 1225.33 3070.2 1227.63 3070.2ZM1223.04 3072.49 1220.75 3072.49 1220.75 3070.2 1223.04 3070.2ZM1217.85 3070.81 1217.85 3068.51 1220.15 3068.51 1220.15 3070.81ZM1217.85 3066.22 1217.85 3063.93 1220.15 3063.93 1220.15 3066.22ZM1217.85 3061.64 1217.85 3059.35 1220.15 3059.35 1220.15 3061.64ZM1217.85 3057.06 1217.85 3054.76 1220.15 3054.76 1220.15 3057.06ZM1217.85 3052.47 1217.85 3050.18 1220.15 3050.18 1220.15 3052.47ZM1217.85 3047.89 1217.85 3045.6 1220.15 3045.6 1220.15 3047.89ZM1217.85 3043.31 1217.85 3041.01 1220.15 3041.01 1220.15 3043.31ZM1217.85 3038.72 1217.85 3036.43 1220.15 3036.43 1220.15 3038.72ZM1217.85 3034.14 1217.85 3031.85 1220.15 3031.85 1220.15 3034.14ZM1217.85 3029.56 1217.85 3027.26 1220.15 3027.26 1220.15 3029.56ZM1217.85 3024.97 1217.85 3022.68 1220.15 3022.68 1220.15 3024.97ZM1217.85 3020.39 1217.85 3018.1 1220.15 3018.1 1220.15 3020.39ZM1217.85 3015.81 1217.85 3013.51 1220.15 3013.51 1220.15 3015.81ZM1217.85 3011.22 1217.85 3008.93 1220.15 3008.93 1220.15 3011.22ZM1217.85 3006.64 1217.85 3004.35 1220.15 3004.35 1220.15 3006.64ZM1217.85 3002.06 1217.85 2999.76 1220.15 2999.76 1220.15 3002.06ZM1217.85 2997.47 1217.85 2995.18 1220.15 2995.18 1220.15 2997.47ZM1217.85 2992.89 1217.85 2990.6 1220.15 2990.6 1220.15 2992.89ZM1217.85 2988.31 1217.85 2986.01 1220.15 2986.01 1220.15 2988.31ZM1217.85 2983.72 1217.85 2981.43 1220.15 2981.43 1220.15 2983.72ZM1217.85 2979.14 1217.85 2976.85 1220.15 2976.85 1220.15 2979.14ZM1217.85 2974.56 1217.85 2972.26 1220.15 2972.26 1220.15 2974.56ZM1217.85 2969.97 1217.85 2967.68 1220.15 2967.68 1220.15 2969.97ZM1217.85 2965.39 1217.85 2963.1 1220.15 2963.1 1220.15 2965.39ZM1217.85 2960.81 1217.85 2958.51 1220.15 2958.51 1220.15 2960.81ZM1217.85 2956.22 1217.85 2953.93 1220.15 2953.93 1220.15 2956.22ZM1217.85 2951.64 1217.85 2949.35 1220.15 2949.35 1220.15 2951.64ZM1217.85 2947.06 1217.85 2944.76 1220.15 2944.76 1220.15 2947.06ZM1217.85 2942.47 1217.85 2940.18 1220.15 2940.18 1220.15 2942.47ZM1217.85 2937.89 1217.85 2935.6 1220.15 2935.6 1220.15 2937.89ZM1217.85 2933.31 1217.85 2931.01 1220.15 2931.01 1220.15 2933.31ZM1217.85 2928.72 1217.85 2926.43 1220.15 2926.43 1220.15 2928.72ZM1217.85 2924.14 1217.85 2921.85 1220.15 2921.85 1220.15 2924.14ZM1217.85 2919.56 1217.85 2917.26 1220.15 2917.26 1220.15 2919.56ZM1217.85 2914.97 1217.85 2912.68 1220.15 2912.68 1220.15 2914.97ZM1217.85 2910.39 1217.85 2908.1 1220.15 2908.1 1220.15 2910.39ZM1217.85 2905.81 1217.85 2903.51 1220.15 2903.51 1220.15 2905.81ZM1217.85 2901.22 1217.85 2898.93 1220.15 2898.93 1220.15 2901.22ZM1217.85 2896.64 1217.85 2894.35 1220.15 2894.35 1220.15 2896.64ZM1217.85 2892.06 1217.85 2889.76 1220.15 2889.76 1220.15 2892.06ZM1217.85 2887.47 1217.85 2885.18 1220.15 2885.18 1220.15 2887.47ZM1217.85 2882.89 1217.85 2880.6 1220.15 2880.6 1220.15 2882.89ZM1217.85 2878.31 1217.85 2876.01 1220.15 2876.01 1220.15 2878.31ZM1217.85 2873.72 1217.85 2871.43 1220.15 2871.43 1220.15 2873.72ZM1217.85 2869.14 1217.85 2866.85 1220.15 2866.85 1220.15 2869.14ZM1217.85 2864.56 1217.85 2862.26 1220.15 2862.26 1220.15 2864.56ZM1217.85 2859.97 1217.85 2857.68 1220.15 2857.68 1220.15 2859.97ZM1217.85 2855.39 1217.85 2853.1 1220.15 2853.1 1220.15 2855.39ZM1217.85 2850.81 1217.85 2848.51 1220.15 2848.51 1220.15 2850.81ZM1217.85 2846.22 1217.85 2843.93 1220.15 2843.93 1220.15 2846.22ZM1217.85 2841.64 1217.85 2839.35 1220.15 2839.35 1220.15 2841.64ZM1217.85 2837.06 1217.85 2834.76 1220.15 2834.76 1220.15 2837.06ZM1217.85 2832.47 1217.85 2830.18 1220.15 2830.18 1220.15 2832.47ZM1217.85 2827.89 1217.85 2827.17 1220.15 2827.17 1220.15 2827.89ZM1219 2827.17 1209.83 2836.33 1219 2818 1228.17 2836.33Z" fill="#7030A0"/>
    <path d="M1019 700.335C1019 665.908 1046.91 638 1081.33 638L1330.67 638C1365.09 638 1393 665.908 1393 700.335L1393 1047.67C1393 1082.09 1365.09 1110 1330.67 1110L1081.33 1110C1046.91 1110 1019 1082.09 1019 1047.67Z" fill="#FBE5D6" fill-rule="evenodd"/>
    <path d="M1005.25 699.988 1005.62 692.574 1006.78 685.016 1008.66 677.713 1011.22 670.712 1014.43 664.053 1018.24 657.778 1022.62 651.923 1027.52 646.524 1032.92 641.616 1038.78 637.238 1045.05 633.426 1051.71 630.218 1058.71 627.656 1066.02 625.778 1073.57 624.624 1080.99 624.25 1331.01 624.25 1338.43 624.624 1345.98 625.778 1353.29 627.656 1360.29 630.218 1366.95 633.426 1373.22 637.238 1379.08 641.616 1384.48 646.524 1389.38 651.923 1393.76 657.778 1397.57 664.054 1400.78 670.712 1403.34 677.713 1405.22 685.016 1406.38 692.574 1406.75 699.988 1406.75 1048.01 1406.38 1055.43 1405.22 1062.98 1403.34 1070.29 1400.78 1077.29 1397.57 1083.95 1393.76 1090.22 1389.38 1096.08 1384.48 1101.48 1379.08 1106.38 1373.22 1110.76 1366.95 1114.57 1360.29 1117.78 1353.29 1120.34 1345.98 1122.22 1338.43 1123.38 1331.01 1123.75 1080.99 1123.75 1073.57 1123.38 1066.02 1122.22 1058.71 1120.34 1051.71 1117.78 1045.05 1114.57 1038.78 1110.76 1032.92 1106.38 1027.52 1101.48 1022.62 1096.08 1018.24 1090.22 1014.43 1083.95 1011.22 1077.29 1008.66 1070.29 1006.78 1062.98 1005.62 1055.43 1005.25 1048.01ZM1014.42 1047.78 1014.76 1054.5 1015.77 1061.15 1017.42 1067.56 1019.67 1073.72 1022.49 1079.57 1025.84 1085.09 1029.69 1090.24 1034.01 1094.99 1038.76 1099.31 1043.91 1103.16 1049.43 1106.51 1055.28 1109.33 1061.44 1111.58 1067.85 1113.23 1074.5 1114.24 1081.22 1114.58 1330.78 1114.58 1337.5 1114.24 1344.15 1113.23 1350.56 1111.58 1356.72 1109.33 1362.57 1106.51 1368.09 1103.16 1373.24 1099.31 1377.99 1094.99 1382.3 1090.24 1386.16 1085.09 1389.51 1079.57 1392.33 1073.72 1394.58 1067.56 1396.23 1061.15 1397.24 1054.5 1397.58 1047.78 1397.58 700.219 1397.24 693.499 1396.23 686.853 1394.58 680.436 1392.33 674.285 1389.51 668.433 1386.16 662.915 1382.3 657.764 1377.99 653.013 1373.24 648.695 1368.09 644.843 1362.57 641.491 1356.72 638.672 1350.56 636.42 1344.15 634.77 1337.5 633.756 1330.78 633.417 1081.22 633.417 1074.5 633.756 1067.85 634.77 1061.44 636.42 1055.28 638.672 1049.43 641.491 1043.91 644.843 1038.76 648.695 1034.01 653.013 1029.69 657.764 1025.84 662.915 1022.49 668.433 1019.67 674.285 1017.42 680.436 1015.77 686.853 1014.76 693.499 1014.42 700.219ZM1023.58 700.45 1023.89 694.424 1024.76 688.691 1026.18 683.16 1028.13 677.858 1030.56 672.812 1033.45 668.051 1036.77 663.604 1040.5 659.502 1044.6 655.773 1049.05 652.448 1053.81 649.556 1058.86 647.125 1064.16 645.185 1069.69 643.763 1075.42 642.888 1081.45 642.583 1330.55 642.583 1336.58 642.888 1342.31 643.763 1347.84 645.185 1353.14 647.125 1358.19 649.556 1362.95 652.448 1367.4 655.773 1371.5 659.502 1375.23 663.604 1378.55 668.051 1381.44 672.812 1383.87 677.858 1385.82 683.16 1387.24 688.691 1388.11 694.424 1388.42 700.45 1388.42 1047.55 1388.11 1053.58 1387.24 1059.31 1385.82 1064.84 1383.87 1070.14 1381.44 1075.19 1378.55 1079.95 1375.23 1084.4 1371.5 1088.5 1367.4 1092.23 1362.95 1095.55 1358.19 1098.44 1353.14 1100.87 1347.84 1102.82 1342.31 1104.24 1336.58 1105.11 1330.55 1105.42 1081.45 1105.42 1075.42 1105.11 1069.69 1104.24 1064.16 1102.82 1058.86 1100.87 1053.81 1098.44 1049.05 1095.55 1044.6 1092.23 1040.5 1088.5 1036.77 1084.4 1033.45 1079.95 1030.56 1075.19 1028.13 1070.14 1026.18 1064.84 1024.76 1059.31 1023.89 1053.58 1023.58 1047.55ZM1032.75 1047.32 1033.02 1052.65 1033.75 1057.47 1034.95 1062.12 1036.58 1066.57 1038.62 1070.81 1041.05 1074.81 1043.85 1078.55 1046.99 1082.01 1050.45 1085.15 1054.19 1087.95 1058.19 1090.38 1062.43 1092.42 1066.88 1094.05 1071.53 1095.24 1076.35 1095.98 1081.68 1096.25 1330.32 1096.25 1335.65 1095.98 1340.47 1095.24 1345.12 1094.05 1349.57 1092.42 1353.81 1090.38 1357.81 1087.95 1361.55 1085.15 1365.01 1082.01 1368.15 1078.55 1370.95 1074.81 1373.38 1070.81 1375.42 1066.57 1377.05 1062.12 1378.24 1057.47 1378.98 1052.65 1379.25 1047.32 1379.25 700.681 1378.98 695.349 1378.24 690.528 1377.05 685.883 1375.42 681.431 1373.38 677.191 1370.95 673.187 1368.15 669.445 1365.01 665.991 1361.55 662.852 1357.81 660.054 1353.81 657.621 1349.57 655.579 1345.12 653.949 1340.47 652.755 1335.65 652.019 1330.32 651.75 1081.68 651.75 1076.35 652.019 1071.53 652.755 1066.88 653.949 1062.43 655.579 1058.19 657.621 1054.19 660.054 1050.45 662.852 1046.99 665.991 1043.85 669.445 1041.05 673.187 1038.62 677.191 1036.58 681.431 1034.95 685.883 1033.75 690.528 1033.02 695.349 1032.75 700.681Z" fill="#C75754"/>
    <path d="M1024 1568.5C1024 1534.54 1051.54 1507 1085.5 1507L1331.5 1507C1365.46 1507 1393 1534.54 1393 1568.5L1393 1917.5C1393 1951.46 1365.46 1979 1331.5 1979L1085.5 1979C1051.54 1979 1024 1951.46 1024 1917.5Z" fill="#FBE5D6" fill-rule="evenodd"/>
    <path d="M1010.25 1568.15 1010.62 1560.83 1011.76 1553.35 1013.62 1546.13 1016.15 1539.2 1019.32 1532.62 1023.1 1526.41 1027.43 1520.62 1032.28 1515.28 1037.62 1510.43 1043.41 1506.1 1049.62 1502.32 1056.2 1499.15 1063.13 1496.62 1070.35 1494.76 1077.83 1493.62 1085.15 1493.25 1331.85 1493.25 1339.17 1493.62 1346.65 1494.76 1353.87 1496.62 1360.8 1499.15 1367.38 1502.32 1373.59 1506.1 1379.38 1510.43 1384.72 1515.28 1389.57 1520.62 1393.9 1526.41 1397.67 1532.62 1400.85 1539.2 1403.38 1546.13 1405.24 1553.35 1406.38 1560.83 1406.75 1568.15 1406.75 1917.85 1406.38 1925.17 1405.24 1932.65 1403.38 1939.87 1400.85 1946.8 1397.67 1953.38 1393.9 1959.59 1389.57 1965.38 1384.72 1970.72 1379.38 1975.57 1373.59 1979.9 1367.38 1983.68 1360.8 1986.85 1353.87 1989.38 1346.65 1991.24 1339.17 1992.38 1331.85 1992.75 1085.15 1992.75 1077.83 1992.38 1070.35 1991.24 1063.13 1989.38 1056.2 1986.85 1049.62 1983.68 1043.41 1979.9 1037.62 1975.57 1032.28 1970.72 1027.43 1965.38 1023.1 1959.59 1019.32 1953.38 1016.15 1946.8 1013.62 1939.87 1011.76 1932.65 1010.62 1925.17 1010.25 1917.85ZM1019.42 1917.61 1019.75 1924.25 1020.75 1930.81 1022.38 1937.15 1024.61 1943.22 1027.39 1949 1030.7 1954.45 1034.5 1959.54 1038.77 1964.23 1043.46 1968.5 1048.55 1972.3 1054 1975.61 1059.78 1978.39 1065.85 1980.62 1072.19 1982.25 1078.75 1983.25 1085.39 1983.58 1331.61 1983.58 1338.25 1983.25 1344.81 1982.25 1351.15 1980.62 1357.22 1978.39 1363 1975.61 1368.45 1972.3 1373.54 1968.5 1378.23 1964.23 1382.5 1959.54 1386.3 1954.45 1389.61 1949 1392.39 1943.22 1394.62 1937.15 1396.25 1930.81 1397.25 1924.25 1397.58 1917.61 1397.58 1568.39 1397.25 1561.75 1396.25 1555.19 1394.62 1548.85 1392.39 1542.78 1389.61 1537 1386.3 1531.55 1382.5 1526.46 1378.23 1521.77 1373.54 1517.5 1368.45 1513.7 1363 1510.39 1357.22 1507.61 1351.15 1505.38 1344.81 1503.75 1338.25 1502.75 1331.61 1502.42 1085.39 1502.42 1078.75 1502.75 1072.19 1503.75 1065.85 1505.38 1059.78 1507.61 1054 1510.39 1048.55 1513.7 1043.46 1517.5 1038.77 1521.77 1034.5 1526.46 1030.7 1531.55 1027.39 1537 1024.61 1542.78 1022.38 1548.85 1020.75 1555.19 1019.75 1561.75 1019.42 1568.39ZM1028.58 1568.62 1028.88 1562.68 1029.75 1557.03 1031.15 1551.57 1033.06 1546.35 1035.46 1541.38 1038.31 1536.68 1041.58 1532.3 1045.26 1528.26 1049.3 1524.58 1053.68 1521.31 1058.38 1518.46 1063.35 1516.06 1068.57 1514.15 1074.03 1512.75 1079.68 1511.88 1085.62 1511.58 1331.38 1511.58 1337.32 1511.88 1342.97 1512.75 1348.43 1514.15 1353.65 1516.06 1358.62 1518.46 1363.32 1521.31 1367.7 1524.58 1371.74 1528.26 1375.42 1532.3 1378.69 1536.68 1381.54 1541.38 1383.94 1546.35 1385.85 1551.57 1387.25 1557.03 1388.12 1562.68 1388.42 1568.62 1388.42 1917.38 1388.12 1923.32 1387.25 1928.97 1385.85 1934.43 1383.94 1939.65 1381.54 1944.62 1378.69 1949.32 1375.42 1953.7 1371.74 1957.74 1367.7 1961.42 1363.32 1964.69 1358.62 1967.54 1353.65 1969.94 1348.43 1971.85 1342.97 1973.25 1337.32 1974.12 1331.38 1974.42 1085.62 1974.42 1079.68 1974.12 1074.03 1973.25 1068.57 1971.85 1063.35 1969.94 1058.38 1967.54 1053.68 1964.69 1049.3 1961.42 1045.26 1957.74 1041.58 1953.7 1038.31 1949.32 1035.46 1944.62 1033.06 1939.65 1031.15 1934.43 1029.75 1928.97 1028.88 1923.32 1028.58 1917.38ZM1037.75 1917.15 1038.02 1922.4 1038.74 1927.14 1039.91 1931.7 1041.51 1936.08 1043.52 1940.24 1045.91 1944.18 1048.66 1947.86 1051.75 1951.25 1055.14 1954.34 1058.82 1957.09 1062.76 1959.48 1066.92 1961.49 1071.3 1963.09 1075.86 1964.26 1080.6 1964.98 1085.85 1965.25 1331.15 1965.25 1336.4 1964.98 1341.14 1964.26 1345.7 1963.09 1350.08 1961.49 1354.24 1959.48 1358.18 1957.09 1361.86 1954.34 1365.25 1951.25 1368.34 1947.86 1371.09 1944.18 1373.48 1940.24 1375.49 1936.08 1377.09 1931.7 1378.26 1927.14 1378.98 1922.4 1379.25 1917.15 1379.25 1568.85 1378.98 1563.6 1378.26 1558.86 1377.09 1554.3 1375.49 1549.92 1373.48 1545.75 1371.09 1541.82 1368.34 1538.14 1365.25 1534.75 1361.86 1531.66 1358.18 1528.91 1354.24 1526.52 1350.08 1524.51 1345.7 1522.91 1341.14 1521.74 1336.4 1521.02 1331.15 1520.75 1085.85 1520.75 1080.6 1521.02 1075.86 1521.74 1071.3 1522.91 1066.92 1524.51 1062.75 1526.52 1058.82 1528.91 1055.14 1531.66 1051.75 1534.75 1048.66 1538.14 1045.91 1541.82 1043.52 1545.75 1041.51 1549.92 1039.91 1554.3 1038.74 1558.86 1038.02 1563.6 1037.75 1568.85Z" fill="#8F6E52"/>
    <path d="M641.5 128.063 828.319 128.063 828.319 134.938 641.5 134.938ZM828.319 131.501 819.152 122.334 846.652 131.501 819.152 140.667Z" fill="#4472C4"/>
    <path d="M950.513 128.063 1689.7 130.913 1689.67 137.788 950.487 134.938ZM1689.68 134.351 1680.55 125.149 1708.01 134.422 1680.48 143.482Z" fill="#4472C4"/>
    <path d="M846.5 122.738C846.5 108.247 858.247 96.5001 872.738 96.5001L924.262 96.5001C938.753 96.5001 950.5 108.247 950.5 122.738L950.5 139.262C950.5 153.753 938.753 165.5 924.262 165.5L872.738 165.5C858.247 165.5 846.5 153.753 846.5 139.262Z" stroke="#00B050" stroke-width="4.58333" stroke-linejoin="round" stroke-miterlimit="10" fill="#E2F0D9" fill-rule="evenodd"/>
    <text font-family="Cambria Math,Cambria Math_MSFontService,sans-serif" font-weight="400" font-size="41" transform="matrix(1 0 0 1 860.46 143)">π‘£</text>
    <text font-family="Cambria Math,Cambria Math_MSFontService,sans-serif" font-weight="400" font-size="30" transform="matrix(1 0 0 1 880.397 152)">π‘π‘π‘</text>
    <text font-family="Cambria Math,Cambria Math_MSFontService,sans-serif" font-weight="400" font-size="30" transform="matrix(1 0 0 1 886.195 128)">π‘ </text>
    <path d="M1708.5 126.118C1708.5 111.417 1720.42 99.4998 1735.12 99.4998L1785.88 99.4998C1800.58 99.4998 1812.5 111.417 1812.5 126.118L1812.5 142.882C1812.5 157.583 1800.58 169.5 1785.88 169.5L1735.12 169.5C1720.42 169.5 1708.5 157.583 1708.5 142.882Z" stroke="#FF0000" stroke-width="4.58333" stroke-linejoin="round" stroke-miterlimit="10" fill="#E2F0D9" fill-rule="evenodd"/>
    <text font-family="Cambria Math,Cambria Math_MSFontService,sans-serif" font-weight="400" font-size="41" transform="matrix(1 0 0 1 1721.24 146)">π‘</text>
    <text font-family="Cambria Math,Cambria Math_MSFontService,sans-serif" font-weight="400" font-size="30" transform="matrix(1 0 0 1 1742.78 155)">π‘π‘π‘</text>
    <text font-family="Cambria Math,Cambria Math_MSFontService,sans-serif" font-weight="400" font-size="30" transform="matrix(1 0 0 1 1745.79 131)">π‘ </text>
    <path d="M0.00467924-3.4375 172.824-3.20225 172.814 3.67274-0.00467924 3.4375ZM172.819 0.235247 163.665-8.94389 191.152 0.260203 163.64 9.38943Z" fill="#4472C4" transform="matrix(1 0 0 -1 1812.5 133.76)"/>
    <path d="M1258.5 418.062 1627.97 418.062 1627.97 674.24 1621.1 674.24 1621.1 421.5 1624.54 424.937 1258.5 424.937ZM1624.54 674.239 1633.7 665.073 1624.54 692.573 1615.37 665.073Z" fill="#BF9000"/>
    <path d="M18.3332-3.4375 288.459-3.4375 288.459 537.205 281.584 537.205 281.584 0 285.022 3.4375 18.3332 3.4375ZM18.3333 0 27.5 9.16667 0 0 27.5-9.16667Z" fill="#BF9000" transform="matrix(1 0 0 -1 1339.5 1307.7)"/>
    <path d="M1339.5 1304.06 1627.96 1304.06 1627.96 1548.97 1621.08 1548.97 1621.08 1307.5 1624.52 1310.94 1339.5 1310.94ZM1624.52 1548.97 1633.69 1539.8 1624.52 1567.3 1615.36 1539.8Z" fill="#BF9000"/>
    <path d="M18.3332-3.4375 272.437-3.4375 272.437 512.139 265.562 512.139 265.562 0 268.999 3.4375 18.3332 3.4375ZM18.3333 0 27.5 9.16667 0 0 27.5-9.16667Z" fill="#BF9000" transform="matrix(1 0 0 -1 1355.5 2157.64)"/>
    <path d="M1213.94 923.5 1213.94 957.135 1207.06 957.135 1207.06 923.5ZM1210.5 957.135 1219.67 947.969 1210.5 975.469 1201.33 947.969Z" fill="#BF9000"/>
    <path d="M3.43748-0.0114133 3.84252 121.98-3.03244 122.003-3.43748 0.0114133ZM0.405041 121.991 9.54122 112.794 0.465912 140.324-8.79201 112.855Z" fill="#BF9000" transform="matrix(-1 0 0 1 1206.97 578.5)"/>
    <path d="M1122.5 618.088C1122.5 608.375 1130.37 600.5 1140.09 600.5L1273.91 600.5C1283.63 600.5 1291.5 608.375 1291.5 618.088L1291.5 660.912C1291.5 670.626 1283.63 678.5 1273.91 678.5L1140.09 678.5C1130.37 678.5 1122.5 670.626 1122.5 660.912Z" stroke="#172C51" stroke-width="4.58333" stroke-miterlimit="8" fill="url(#fill0)" fill-rule="evenodd"/>
    <text fill="#7F6000" font-family="Calibri,Calibri_MSFontService,sans-serif" font-weight="700" font-size="46" transform="matrix(1 0 0 1 1161.72 655)">SLC..</text>
    <path d="M1154 531.059C1154 515.428 1161.39 502.755 1170.52 502.755L1185.72 501.815 1205.33 501 1222.04 501.815 1241.48 502.755C1250.61 502.755 1258 515.428 1258 531.059L1258 548.885C1258 564.517 1250.61 577.189 1241.48 577.189L1220.7 578 1205.8 577.763 1187.7 578 1170.52 577.189C1161.39 577.189 1154 564.517 1154 548.885L1154 531.059Z" fill="#E2F0D9" fill-rule="evenodd"/>
    <text font-family="Cambria Math,Cambria Math_MSFontService,sans-serif" font-weight="400" font-size="41" transform="matrix(1 0 0 1 1171.83 554)">π‘£</text>
    <text font-family="Cambria Math,Cambria Math_MSFontService,sans-serif" font-weight="400" font-size="30" transform="matrix(1 0 0 1 1193.76 563)">π‘1</text>
    <text font-family="Cambria Math,Cambria Math_MSFontService,sans-serif" font-weight="400" font-size="30" transform="matrix(1 0 0 1 1197.78 538)">π΄</text>
    <path d="M1148.5 874.977C1148.5 860.906 1159.91 849.5 1173.98 849.5L1240.02 849.5C1254.09 849.5 1265.5 860.906 1265.5 874.977L1265.5 891.022C1265.5 905.093 1254.09 916.5 1240.02 916.5L1173.98 916.5C1159.91 916.5 1148.5 905.093 1148.5 891.022Z" stroke="#FF0000" stroke-width="4.58333" stroke-linejoin="round" stroke-miterlimit="10" fill="#E2F0D9" fill-rule="evenodd"/>
    <text font-family="Cambria Math,Cambria Math_MSFontService,sans-serif" font-weight="400" font-size="41" transform="matrix(1 0 0 1 1157.76 898)">π‘</text>
    <text font-family="Cambria Math,Cambria Math_MSFontService,sans-serif" font-weight="400" font-size="30" transform="matrix(1 0 0 1 1179.3 907)">π‘’π‘›π‘‘π‘</text>
    <text font-family="Cambria Math,Cambria Math_MSFontService,sans-serif" font-weight="400" font-size="30" transform="matrix(1 0 0 1 1182.51 881)">π΄</text>
    <path d="M1154 748.45C1154 732.615 1161.39 719.778 1170.52 719.778L1185.72 718.825 1205.33 718 1222.04 718.825 1241.48 719.778C1250.61 719.778 1258 732.615 1258 748.45L1258 766.507C1258 782.342 1250.61 795.179 1241.48 795.179L1220.7 796 1205.8 795.76 1187.7 796 1170.52 795.179C1161.39 795.179 1154 782.342 1154 766.507L1154 748.45Z" fill="#E2F0D9" fill-rule="evenodd"/>
    <text font-family="Cambria Math,Cambria Math_MSFontService,sans-serif" font-weight="400" font-size="41" transform="matrix(1 0 0 1 1171.83 772)">π‘£</text>
    <text font-family="Cambria Math,Cambria Math_MSFontService,sans-serif" font-weight="400" font-size="30" transform="matrix(1 0 0 1 1193.76 781)">π‘1</text>
    <text font-family="Cambria Math,Cambria Math_MSFontService,sans-serif" font-weight="400" font-size="30" transform="matrix(1 0 0 1 1197.78 756)">π΄</text>
    <path d="M1209.93 795.262 1212.31 829.531 1205.45 830.007 1203.07 795.738ZM1208.88 829.769 1217.39 819.99 1210.15 848.058 1199.1 821.258Z" fill="#BF9000"/>
    <path d="M1209.94 1040.5 1209.94 1162.73 1203.06 1162.73 1203.06 1040.5ZM1206.5 1162.73 1215.67 1153.57 1206.5 1181.07 1197.33 1153.57Z" fill="#BF9000"/>
    <path d="M1122.5 1089.09C1122.5 1079.37 1130.37 1071.5 1140.09 1071.5L1273.91 1071.5C1283.63 1071.5 1291.5 1079.37 1291.5 1089.09L1291.5 1131.91C1291.5 1141.63 1283.63 1149.5 1273.91 1149.5L1140.09 1149.5C1130.37 1149.5 1122.5 1141.63 1122.5 1131.91Z" stroke="#172C51" stroke-width="4.58333" stroke-miterlimit="8" fill="url(#fill1)" fill-rule="evenodd"/>
    <text fill="#7F6000" font-family="Calibri,Calibri_MSFontService,sans-serif" font-weight="700" font-size="46" transform="matrix(1 0 0 1 1161.72 1125)">SLC..</text>
    <path d="M1245.2 793.378 1275.62 832.127 1270.21 836.372 1239.8 797.622ZM1272.91 834.25 1274.46 821.379 1284.23 848.672 1260.04 832.698Z" fill="#BF9000"/>
    <path d="M2.95639-1.7539 25.1468 35.6504 19.234 39.1582-2.95639 1.7539ZM22.1904 37.4043 25.397 24.8435 31.5445 53.1717 9.62961 34.1977Z" fill="#BF9000" transform="matrix(-1 0 0 1 1171.04 795.5)"/>
    <path d="M11.044 15.0319 30.6076 55.7086 24.4119 58.6885 4.84835 18.0117ZM7.94618 16.5218 3.65838 28.7558 0 0 20.1802 20.8096Z" fill="#BF9000" transform="matrix(1 0 0 -1 1258.5 981.698)"/>
    <path d="M1158.97 966.667 1139.4 925.99 1145.6 923.01 1165.16 963.687ZM1162.06 965.177 1166.35 952.943 1170.01 981.698 1149.83 960.889Z" fill="#BF9000"/>
    <path d="M1248.5 1299.36C1248.5 1285.08 1260.08 1273.5 1274.36 1273.5L1313.64 1273.5C1327.92 1273.5 1339.5 1285.08 1339.5 1299.36L1339.5 1315.64C1339.5 1329.92 1327.92 1341.5 1313.64 1341.5L1274.36 1341.5C1260.08 1341.5 1248.5 1329.92 1248.5 1315.64Z" stroke="#FF0000" stroke-width="4.58333" stroke-linejoin="round" stroke-miterlimit="10" fill="#E2F0D9" fill-rule="evenodd"/>
    <text font-family="Cambria Math,Cambria Math_MSFontService,sans-serif" font-weight="400" font-size="41" transform="matrix(1 0 0 1 1260.29 1323)">π‘</text>
    <text font-family="Cambria Math,Cambria Math_MSFontService,sans-serif" font-weight="400" font-size="30" transform="matrix(1 0 0 1 1281.83 1333)">π‘–π‘›π‘΅</text>
    <text font-family="Cambria Math,Cambria Math_MSFontService,sans-serif" font-weight="400" font-size="30" transform="matrix(1 0 0 1 1285.04 1306)">π΄</text>
    <path d="M1230.21 1310.67 1203.06 1310.67 1203.06 1258.5 1209.94 1258.5 1209.94 1307.23 1206.5 1303.79 1230.21 1303.79ZM1230.21 1307.23 1221.04 1298.06 1248.54 1307.23 1221.04 1316.4Z" fill="#BF9000"/>
    <path d="M3.43711-0.0514748 3.83132 26.2705-3.04291 26.3734-3.43711 0.0514748ZM0.394201 26.3219 9.42257 17.019 0.668734 44.6532-8.9087 17.2936Z" fill="#BF9000" transform="matrix(-1 0 0 1 1207.17 456.5)"/>
    <path d="M1154 1861.06C1154 1845.43 1161.39 1832.76 1170.52 1832.76L1185.72 1831.81 1205.33 1831 1222.04 1831.81 1241.48 1832.76C1250.61 1832.76 1258 1845.43 1258 1861.06L1258 1878.88C1258 1894.52 1250.61 1907.19 1241.48 1907.19L1220.7 1908 1205.8 1907.76 1187.7 1908 1170.52 1907.19C1161.39 1907.19 1154 1894.52 1154 1878.88L1154 1861.06Z" fill="#E2F0D9" fill-rule="evenodd"/>
    <text font-family="Cambria Math,Cambria Math_MSFontService,sans-serif" font-weight="400" font-size="41" transform="matrix(1 0 0 1 1171.83 1884)">π‘£</text>
    <text font-family="Cambria Math,Cambria Math_MSFontService,sans-serif" font-weight="400" font-size="30" transform="matrix(1 0 0 1 1193.76 1893)">π‘2</text>
    <text font-family="Cambria Math,Cambria Math_MSFontService,sans-serif" font-weight="400" font-size="30" transform="matrix(1 0 0 1 1197.78 1868)">π΄</text>
    <path d="M1213.94 1790.5 1213.94 1811.14 1207.06 1811.14 1207.06 1790.5ZM1210.5 1811.14 1219.67 1801.98 1210.5 1829.48 1201.33 1801.98Z" fill="#BF9000"/>
    <path d="M3.43747-0.0143063 4.03026 142.42-2.84468 142.449-3.43747 0.0143063ZM0.592794 142.435 9.72123 133.23 0.669095 160.768-8.61194 133.306Z" fill="#BF9000" transform="matrix(-1 0 0 1 1207.17 1425.5)"/>
    <path d="M1122.5 1485.09C1122.5 1475.37 1130.37 1467.5 1140.09 1467.5L1273.91 1467.5C1283.63 1467.5 1291.5 1475.37 1291.5 1485.09L1291.5 1527.91C1291.5 1537.63 1283.63 1545.5 1273.91 1545.5L1140.09 1545.5C1130.37 1545.5 1122.5 1537.63 1122.5 1527.91Z" stroke="#172C51" stroke-width="4.58333" stroke-miterlimit="8" fill="url(#fill2)" fill-rule="evenodd"/>
    <text fill="#7F6000" font-family="Calibri,Calibri_MSFontService,sans-serif" font-weight="700" font-size="46" transform="matrix(1 0 0 1 1161.72 1522)">SLC..</text>
    <path d="M1148.5 1741.16C1148.5 1724.78 1161.78 1711.5 1178.16 1711.5L1235.84 1711.5C1252.22 1711.5 1265.5 1724.78 1265.5 1741.16L1265.5 1759.84C1265.5 1776.22 1252.22 1789.5 1235.84 1789.5L1178.16 1789.5C1161.78 1789.5 1148.5 1776.22 1148.5 1759.84Z" stroke="#FF0000" stroke-width="4.58333" stroke-linejoin="round" stroke-miterlimit="10" fill="#E2F0D9" fill-rule="evenodd"/>
    <text font-family="Cambria Math,Cambria Math_MSFontService,sans-serif" font-weight="400" font-size="41" transform="matrix(1 0 0 1 1171.11 1763)">π‘</text>
    <text font-family="Cambria Math,Cambria Math_MSFontService,sans-serif" font-weight="400" font-size="30" transform="matrix(1 0 0 1 1192.65 1773)">π‘’π‘π‘–</text>
    <text font-family="Cambria Math,Cambria Math_MSFontService,sans-serif" font-weight="400" font-size="30" transform="matrix(1 0 0 1 1195.86 1746)">π΄</text>
    <path d="M1154 1615.45C1154 1599.62 1161.39 1586.78 1170.52 1586.78L1185.72 1585.83 1205.33 1585 1222.04 1585.83 1241.48 1586.78C1250.61 1586.78 1258 1599.62 1258 1615.45L1258 1633.51C1258 1649.34 1250.61 1662.18 1241.48 1662.18L1220.7 1663 1205.8 1662.76 1187.7 1663 1170.52 1662.18C1161.39 1662.18 1154 1649.34 1154 1633.51L1154 1615.45Z" fill="#E2F0D9" fill-rule="evenodd"/>
    <text font-family="Cambria Math,Cambria Math_MSFontService,sans-serif" font-weight="400" font-size="41" transform="matrix(1 0 0 1 1171.83 1639)">π‘£</text>
    <text font-family="Cambria Math,Cambria Math_MSFontService,sans-serif" font-weight="400" font-size="30" transform="matrix(1 0 0 1 1193.76 1648)">π‘2</text>
    <text font-family="Cambria Math,Cambria Math_MSFontService,sans-serif" font-weight="400" font-size="30" transform="matrix(1 0 0 1 1197.78 1623)">π΄</text>
    <path d="M1209.94 1663.49 1210.06 1693.35 1203.19 1693.38 1203.06 1663.51ZM1206.63 1693.37 1215.75 1684.16 1206.7 1711.7 1197.42 1684.24Z" fill="#BF9000"/>
    <path d="M1209.94 1908.5 1210.11 2031.99 1203.24 2032 1203.06 1908.5ZM1206.68 2031.99 1215.83 2022.81 1206.7 2050.33 1197.5 2022.84Z" fill="#BF9000"/>
    <path d="M1122.5 1956.09C1122.5 1946.37 1130.37 1938.5 1140.09 1938.5L1273.91 1938.5C1283.63 1938.5 1291.5 1946.37 1291.5 1956.09L1291.5 1998.91C1291.5 2008.63 1283.63 2016.5 1273.91 2016.5L1140.09 2016.5C1130.37 2016.5 1122.5 2008.63 1122.5 1998.91Z" stroke="#172C51" stroke-width="4.58333" stroke-miterlimit="8" fill="url(#fill3)" fill-rule="evenodd"/>
    <text fill="#7F6000" font-family="Calibri,Calibri_MSFontService,sans-serif" font-weight="700" font-size="46" transform="matrix(1 0 0 1 1161.72 1992)">SLC..</text>
    <path d="M1245.2 1660.37 1275.06 1698.29 1269.66 1702.54 1239.8 1664.63ZM1272.36 1700.41 1273.89 1687.54 1283.71 1714.82 1259.49 1698.88Z" fill="#BF9000"/>
    <path d="M2.93073-1.79645 25.4175 34.8883 19.556 38.4812-2.93073 1.79645ZM22.4867 36.6848 25.5115 24.079 32.0678 52.3153 9.88092 33.66Z" fill="#BF9000" transform="matrix(-1 0 0 1 1171.57 1662.5)"/>
    <path d="M9.24924 16.1981 27.9501 70.1817 21.4539 72.4321 2.75299 18.4485ZM6.00111 17.3233 0.340004 28.9856 0 0 17.6633 22.9844Z" fill="#BF9000" transform="matrix(1 0 0 -1 1258.5 1861.81)"/>
    <path d="M1147.79 1844.63 1136.14 1791.23 1142.86 1789.77 1154.51 1843.16ZM1151.15 1843.9 1158.15 1832.98 1155.06 1861.81 1140.24 1836.89Z" fill="#BF9000"/>
    <path d="M0-3.4375 45.4764-3.4375 45.4764 21.0916 38.6014 21.0916 38.6014 0 42.0389 3.4375 0 3.4375ZM42.0389 21.0916 51.2056 11.925 42.0389 39.425 32.8722 11.925Z" fill="#BF9000" transform="matrix(-1 1.22465e-16 1.22465e-16 1 1248.54 1307.5)"/>
    <path d="M1251.5 2149.6C1251.5 2135.74 1262.74 2124.5 1276.6 2124.5L1330.4 2124.5C1344.26 2124.5 1355.5 2135.74 1355.5 2149.6L1355.5 2165.4C1355.5 2179.26 1344.26 2190.5 1330.4 2190.5L1276.6 2190.5C1262.74 2190.5 1251.5 2179.26 1251.5 2165.4Z" stroke="#FF0000" stroke-width="4.58333" stroke-linejoin="round" stroke-miterlimit="10" fill="#E2F0D9" fill-rule="evenodd"/>
    <text font-family="Cambria Math,Cambria Math_MSFontService,sans-serif" font-weight="400" font-size="41" transform="matrix(1 0 0 1 1263.67 2172)">π‘</text>
    <text font-family="Cambria Math,Cambria Math_MSFontService,sans-serif" font-weight="400" font-size="30" transform="matrix(1 0 0 1 1285.21 2181)">πΈπΏπΉ</text>
    <text font-family="Cambria Math,Cambria Math_MSFontService,sans-serif" font-weight="400" font-size="30" transform="matrix(1 0 0 1 1288.42 2156)">π΄</text>
    <path d="M721 412.618C721 397.917 732.917 386 747.618 386L1058.38 386C1073.08 386 1085 397.917 1085 412.618L1085 429.382C1085 444.083 1073.08 456 1058.38 456L747.618 456C732.917 456 721 444.083 721 429.382Z" fill="#E2F0D9" fill-rule="evenodd"/>
    <text font-family="Cambria Math,Cambria Math_MSFontService,sans-serif" font-weight="400" font-size="41" transform="matrix(1 0 0 1 737.656 434)">π‘£</text>
    <text font-family="Cambria Math,Cambria Math_MSFontService,sans-serif" font-weight="400" font-size="30" transform="matrix(1 0 0 1 757.594 442)">π‘π‘π‘</text>
    <text font-family="Cambria Math,Cambria Math_MSFontService,sans-serif" font-weight="400" font-size="30" transform="matrix(1 0 0 1 763.598 419)">π΄</text>
    <text font-family="Cambria Math,Cambria Math_MSFontService,sans-serif" font-weight="400" font-size="41" transform="matrix(1 0 0 1 824.419 434)">=</text>
    <text font-family="Cambria Math,Cambria Math_MSFontService,sans-serif" font-weight="400" font-size="41" transform="matrix(1 0 0 1 866.815 434)">π‘£</text>
    <text font-family="Cambria Math,Cambria Math_MSFontService,sans-serif" font-weight="400" font-size="30" transform="matrix(1 0 0 1 886.752 442)">π‘π‘π‘</text>
    <text font-family="Cambria Math,Cambria Math_MSFontService,sans-serif" font-weight="400" font-size="30" transform="matrix(1 0 0 1 892.55 419)">π‘ </text>
    <text font-family="Cambria Math,Cambria Math_MSFontService,sans-serif" font-weight="400" font-size="41" transform="matrix(1 0 0 1 942.119 434)">.</text>
    <path d="M999.652 402.807 1008.58 402.807 1008.58 440.984 999.652 440.984 999.652 439.443 1005.26 439.443 1005.26 404.349 999.652 404.349ZM962.152 402.807 971.081 402.807 971.081 404.349 965.475 404.349 965.475 439.443 971.081 439.443 971.081 440.984 962.152 440.984Z" fill-rule="evenodd"/>
    <text font-family="Cambria Math,Cambria Math_MSFontService,sans-serif" font-weight="400" font-size="41" transform="matrix(1 0 0 1 972.025 434)">π΄</text>
    <text font-family="Cambria Math,Cambria Math_MSFontService,sans-serif" font-weight="400" font-size="30" transform="matrix(1 0 0 1 1013.23 442)">π‘π‘π‘</text>
    <path d="M640.563 416.063 704.103 417.238 703.976 424.112 640.436 422.937ZM704.039 420.675 695.044 411.341 722.369 421.014 694.705 429.671Z" fill="#BF9000"/>
    <path d="M1258.51 418.062 1984.66 419.358 1984.64 426.233 1258.49 424.937ZM1984.65 422.795 1975.5 413.612 2002.98 422.828 1975.47 431.946Z" fill="#BF9000"/>
    <path d="M1085.5 418.062 1136.44 418.063 1136.44 424.938 1085.5 424.937ZM1136.44 421.5 1127.28 412.333 1154.78 421.5 1127.28 430.667Z" fill="#BF9000"/>
    <path d="M1149 297.618C1149 282.917 1160.92 271 1175.62 271L1511.38 271C1526.08 271 1538 282.917 1538 297.618L1538 314.382C1538 329.083 1526.08 341 1511.38 341L1175.62 341C1160.92 341 1149 329.083 1149 314.382Z" fill="#E7E6E6" fill-rule="evenodd"/>
    <text fill="#7F7F7F" font-family="Cambria Math,Cambria Math_MSFontService,sans-serif" font-weight="400" font-size="41" transform="matrix(1 0 0 1 1176.16 319)">π‘</text>
    <text fill="#7F7F7F" font-family="Cambria Math,Cambria Math_MSFontService,sans-serif" font-weight="400" font-size="30" transform="matrix(1 0 0 1 1197.7 327)">π‘π‘π‘</text>
    <text fill="#7F7F7F" font-family="Cambria Math,Cambria Math_MSFontService,sans-serif" font-weight="400" font-size="30" transform="matrix(1 0 0 1 1200.91 304)">π΄</text>
    <text fill="#7F7F7F" font-family="Cambria Math,Cambria Math_MSFontService,sans-serif" font-weight="400" font-size="41" transform="matrix(1 0 0 1 1264.53 319)">=</text>
    <path d="M1348.99 287.886 1357.92 287.886 1357.92 326.063 1348.99 326.063 1348.99 324.522 1354.6 324.522 1354.6 289.428 1348.99 289.428ZM1311.49 287.886 1320.42 287.886 1320.42 289.428 1314.81 289.428 1314.81 324.522 1320.42 324.522 1320.42 326.063 1311.49 326.063Z" fill="#7F7F7F" fill-rule="evenodd"/>
    <text fill="#7F7F7F" font-family="Cambria Math,Cambria Math_MSFontService,sans-serif" font-weight="400" font-size="41" transform="matrix(1 0 0 1 1321.36 319)">π΄</text>
    <text fill="#7F7F7F" font-family="Cambria Math,Cambria Math_MSFontService,sans-serif" font-weight="400" font-size="30" transform="matrix(1 0 0 1 1362.57 327)">π‘π‘π‘</text>
    <text fill="#7F7F7F" font-family="Cambria Math,Cambria Math_MSFontService,sans-serif" font-weight="400" font-size="41" transform="matrix(1 0 0 1 1417.93 319)">.</text>
    <text fill="#7F7F7F" font-family="Cambria Math,Cambria Math_MSFontService,sans-serif" font-weight="400" font-size="41" transform="matrix(1 0 0 1 1433.4 319)">π‘</text>
    <text fill="#7F7F7F" font-family="Cambria Math,Cambria Math_MSFontService,sans-serif" font-weight="400" font-size="30" transform="matrix(1 0 0 1 1454.94 327)">π‘π‘π‘</text>
    <text fill="#7F7F7F" font-family="Cambria Math,Cambria Math_MSFontService,sans-serif" font-weight="400" font-size="30" transform="matrix(1 0 0 1 1457.95 304)">π‘ </text>
    <path d="M1154.5 413.118C1154.5 398.417 1166.42 386.5 1181.12 386.5L1231.88 386.5C1246.58 386.5 1258.5 398.417 1258.5 413.118L1258.5 429.882C1258.5 444.582 1246.58 456.5 1231.88 456.5L1181.12 456.5C1166.42 456.5 1154.5 444.582 1154.5 429.882Z" stroke="#FF0000" stroke-width="4.58333" stroke-linejoin="round" stroke-miterlimit="10" fill="#E2F0D9" fill-rule="evenodd"/>
    <text font-family="Cambria Math,Cambria Math_MSFontService,sans-serif" font-weight="400" font-size="41" transform="matrix(1 0 0 1 1167.66 434)">π‘</text>
    <text font-family="Cambria Math,Cambria Math_MSFontService,sans-serif" font-weight="400" font-size="30" transform="matrix(1 0 0 1 1189.2 442)">π‘π‘π‘</text>
    <text font-family="Cambria Math,Cambria Math_MSFontService,sans-serif" font-weight="400" font-size="30" transform="matrix(1 0 0 1 1192.41 419)">π΄</text>
    <path d="M3.4375-2.73647e-05 3.43772 27.0012-3.43728 27.0013-3.4375 2.73647e-05ZM0.000214947 27.0012 9.16681 17.8345 0.000360892 45.3346-9.16652 17.8347Z" fill="#7F7F7F" transform="matrix(1 0 0 -1 1206.5 385.835)"/>
    <path d="M1708.5 2058.84C1708.5 2045.4 1719.4 2034.5 1732.84 2034.5L1788.16 2034.5C1801.6 2034.5 1812.5 2045.4 1812.5 2058.84L1812.5 2074.16C1812.5 2087.6 1801.6 2098.5 1788.16 2098.5L1732.84 2098.5C1719.4 2098.5 1708.5 2087.6 1708.5 2074.16Z" stroke="#FF0000" stroke-width="4.58333" stroke-linejoin="round" stroke-miterlimit="10" fill="#E2F0D9" fill-rule="evenodd"/>
    <text font-family="Cambria Math,Cambria Math_MSFontService,sans-serif" font-weight="400" font-size="41" transform="matrix(1 0 0 1 1719.94 2080)">π‘</text>
    <text font-family="Cambria Math,Cambria Math_MSFontService,sans-serif" font-weight="400" font-size="30" transform="matrix(1 0 0 1 1741.48 2090)">πΈπΏπΉ</text>
    <text font-family="Cambria Math,Cambria Math_MSFontService,sans-serif" font-weight="400" font-size="30" transform="matrix(1 0 0 1 1744.49 2064)">π‘ </text>
    <path d="M3.4375-3.10852e-06 3.43784 380.752-3.43716 380.752-3.4375 3.10852e-06ZM0.000344314 380.752 9.167 371.586 0.000360892 399.086-9.16633 371.586Z" fill="#4472C4" transform="matrix(-1 0 0 1 1760.5 773.5)"/>
    <path d="M3.4375-3.18806e-06 3.43784 370.796-3.43716 370.796-3.4375 3.18806e-06ZM0.000343889 370.796 9.167 361.63 0.000360892 389.13-9.16633 361.63Z" fill="#4472C4" transform="matrix(-1 0 0 1 1760.5 1645.5)"/>
    <path d="M1763.94 169.5 1763.94 677.463 1757.06 677.463 1757.06 169.5ZM1760.5 677.463 1769.67 668.297 1760.5 695.797 1751.33 668.297Z" fill="#4472C4"/>
    <path d="M1719.5 1196.84C1719.5 1183.4 1730.4 1172.5 1743.84 1172.5L1776.16 1172.5C1789.6 1172.5 1800.5 1183.4 1800.5 1196.84L1800.5 1212.16C1800.5 1225.6 1789.6 1236.5 1776.16 1236.5L1743.84 1236.5C1730.4 1236.5 1719.5 1225.6 1719.5 1212.16Z" stroke="#FF0000" stroke-width="4.58333" stroke-linejoin="round" stroke-miterlimit="10" fill="#E2F0D9" fill-rule="evenodd"/>
    <text font-family="Cambria Math,Cambria Math_MSFontService,sans-serif" font-weight="400" font-size="41" transform="matrix(1 0 0 1 1726.38 1218)">π‘</text>
    <text font-family="Cambria Math,Cambria Math_MSFontService,sans-serif" font-weight="400" font-size="30" transform="matrix(1 0 0 1 1747.92 1229)">π‘–π‘›π‘΅</text>
    <text font-family="Cambria Math,Cambria Math_MSFontService,sans-serif" font-weight="400" font-size="30" transform="matrix(1 0 0 1 1750.92 1202)">π‘ </text>
    <path d="M1763.94 1236.5 1763.94 1548.73 1757.06 1548.73 1757.06 1236.5ZM1760.5 1548.73 1769.67 1539.56 1760.5 1567.06 1751.33 1539.56Z" fill="#4472C4"/>
    <path d="M1258.5 418.062 1485 418.062 1485 676.859 1478.13 676.859 1478.13 421.5 1481.57 424.937 1258.5 424.937ZM1481.57 676.858 1490.73 667.692 1481.57 695.192 1472.4 667.692Z" fill="#BF9000"/>
    <path d="M18.3333-3.4375 145.9-3.4375 145.9 534.148 139.025 534.148 139.025 0 142.462 3.4375 18.3333 3.4375ZM18.3333 0 27.5 9.16667 0 0 27.5-9.16667Z" fill="#BF9000" transform="matrix(1 0 0 -1 1339.5 1307.65)"/>
    <path d="M1339.5 1304.06 1484.99 1304.06 1484.99 1548.97 1478.11 1548.97 1478.11 1307.5 1481.55 1310.94 1339.5 1310.94ZM1481.55 1548.97 1490.72 1539.8 1481.55 1567.3 1472.38 1539.8Z" fill="#BF9000"/>
    <path d="M18.3333-3.4375 129.466-3.4375 129.466 512.139 122.591 512.139 122.591 0 126.028 3.4375 18.3333 3.4375ZM18.3333 0 27.5 9.16667 0 0 27.5-9.16667Z" fill="#BF9000" transform="matrix(1 0 0 -1 1355.5 2157.64)"/>
    <path d="M0-1.14583 2.29167-1.14583 2.29167 1.14583 0 1.14583ZM4.58333-1.14583 6.875-1.14583 6.875 1.14583 4.58333 1.14583ZM9.16667-1.14583 11.4583-1.14583 11.4583 1.14583 9.16667 1.14583ZM13.75-1.14583 16.0417-1.14583 16.0417 1.14583 13.75 1.14583ZM18.3333-1.14583 20.625-1.14583 20.625 1.14583 18.3333 1.14583ZM22.9167-1.14583 25.2083-1.14583 25.2083 1.14583 22.9167 1.14583ZM27.5-1.14583 29.7917-1.14583 29.7917 1.14583 27.5 1.14583ZM32.0833-1.14583 34.375-1.14583 34.375 1.14583 32.0833 1.14583ZM36.6667-1.14583 38.9583-1.14583 38.9583 1.14583 36.6667 1.14583ZM41.25-1.14583 43.5417-1.14583 43.5417 1.14583 41.25 1.14583ZM45.8333-1.14583 48.125-1.14583 48.125 1.14583 45.8333 1.14583ZM50.4167-1.14583 52.7083-1.14583 52.7083 1.14583 50.4167 1.14583ZM55-1.14583 57.2917-1.14583 57.2917 1.14583 55 1.14583ZM59.5833-1.14583 61.875-1.14583 61.875 1.14583 59.5833 1.14583ZM64.1667-1.14583 66.4583-1.14583 66.4583 1.14583 64.1667 1.14583ZM68.75-1.14583 71.0417-1.14583 71.0417 1.14583 68.75 1.14583ZM73.3333-1.14583 75.625-1.14583 75.625 1.14583 73.3333 1.14583ZM77.9167-1.14583 80.2083-1.14583 80.2083 1.14583 77.9167 1.14583ZM82.5-1.14583 84.7917-1.14583 84.7917 1.14583 82.5 1.14583ZM87.0833-1.14583 89.375-1.14583 89.375 1.14583 87.0833 1.14583ZM91.6667-1.14583 93.9583-1.14583 93.9583 1.14583 91.6667 1.14583ZM96.25-1.14583 98.5417-1.14583 98.5417 1.14583 96.25 1.14583ZM100.833-1.14583 103.125-1.14583 103.125 1.14583 100.833 1.14583ZM105.417-1.14583 107.708-1.14583 107.708 1.14583 105.417 1.14583ZM110-1.14583 112.292-1.14583 112.292 1.14583 110 1.14583ZM114.583-1.14583 116.875-1.14583 116.875 1.14583 114.583 1.14583ZM119.167-1.14583 121.458-1.14583 121.458 1.14583 119.167 1.14583ZM123.75-1.14583 126.042-1.14583 126.042 1.14583 123.75 1.14583ZM128.333-1.14583 130.625-1.14583 130.625 1.14583 128.333 1.14583ZM132.917-1.14583 135.208-1.14583 135.208 1.14583 132.917 1.14583ZM137.5-1.14583 139.792-1.14583 139.792 1.14583 137.5 1.14583ZM142.083-1.14583 144.375-1.14583 144.375 1.14583 142.083 1.14583ZM146.667-1.14583 148.958-1.14583 148.958 1.14583 146.667 1.14583ZM151.25-1.14583 153.542-1.14583 153.542 1.14583 151.25 1.14583ZM155.833-1.14583 158.125-1.14583 158.125 1.14583 155.833 1.14583ZM160.417-1.14583 162.708-1.14583 162.708 1.14583 160.417 1.14583ZM165-1.14583 167.292-1.14583 167.292 1.14583 165 1.14583ZM169.583-1.14583 171.875-1.14583 171.875 1.14583 169.583 1.14583ZM174.167-1.14583 176.458-1.14583 176.458 1.14583 174.167 1.14583ZM178.75-1.14583 181.042-1.14583 181.042 1.14583 178.75 1.14583ZM183.333-1.14583 185.625-1.14583 185.625 1.14583 183.333 1.14583ZM187.917-1.14583 190.208-1.14583 190.208 1.14583 187.917 1.14583ZM192.5-1.14583 194.792-1.14583 194.792 1.14583 192.5 1.14583ZM197.083-1.14583 199.375-1.14583 199.375 1.14583 197.083 1.14583ZM201.667-1.14583 203.958-1.14583 203.958 1.14583 201.667 1.14583ZM206.25-1.14583 208.542-1.14583 208.542 1.14583 206.25 1.14583ZM210.833-1.14583 213.125-1.14583 213.125 1.14583 210.833 1.14583ZM215.417-1.14583 217.708-1.14583 217.708 1.14583 215.417 1.14583ZM220-1.14583 222.292-1.14583 222.292 1.14583 220 1.14583ZM224.583-1.14583 226.875-1.14583 226.875 1.14583 224.583 1.14583ZM229.167-1.14583 231.458-1.14583 231.458 1.14583 229.167 1.14583ZM233.75-1.14583 236.042-1.14583 236.042 1.14583 233.75 1.14583ZM238.333-1.14583 240.625-1.14583 240.625 1.14583 238.333 1.14583ZM242.917-1.14583 245.208-1.14583 245.208 1.14583 242.917 1.14583ZM247.5-1.14583 249.792-1.14583 249.792 1.14583 247.5 1.14583ZM252.083-1.14583 254.375-1.14583 254.375 1.14583 252.083 1.14583ZM256.667-1.14583 258.958-1.14583 258.958 1.14583 256.667 1.14583ZM261.25-1.14583 263.542-1.14583 263.542 1.14583 261.25 1.14583ZM265.833-1.14583 268.125-1.14583 268.125 1.14583 265.833 1.14583ZM270.417-1.14583 272.708-1.14583 272.708 1.14583 270.417 1.14583ZM275-1.14583 277.292-1.14583 277.292 1.14583 275 1.14583ZM279.583-1.14583 281.875-1.14583 281.875 1.14583 279.583 1.14583ZM284.167-1.14583 286.458-1.14583 286.458 1.14583 284.167 1.14583ZM288.75-1.14583 291.042-1.14583 291.042 1.14583 288.75 1.14583ZM293.333-1.14583 295.625-1.14583 295.625 1.14583 293.333 1.14583ZM297.917-1.14583 300.208-1.14583 300.208 1.14583 297.917 1.14583ZM302.5-1.14583 304.792-1.14583 304.792 1.14583 302.5 1.14583ZM307.083-1.14583 309.375-1.14583 309.375 1.14583 307.083 1.14583ZM311.667-1.14583 313.958-1.14583 313.958 1.14583 311.667 1.14583ZM316.25-1.14583 318.542-1.14583 318.542 1.14583 316.25 1.14583ZM320.833-1.14583 323.125-1.14583 323.125 1.14583 320.833 1.14583ZM325.417-1.14583 327.708-1.14583 327.708 1.14583 325.417 1.14583ZM330-1.14583 332.292-1.14583 332.292 1.14583 330 1.14583ZM334.583-1.14583 336.875-1.14583 336.875 1.14583 334.583 1.14583ZM339.167-1.14583 341.458-1.14583 341.458 1.14583 339.167 1.14583ZM343.75-1.14583 346.042-1.14583 346.042 1.14583 343.75 1.14583ZM348.333-1.14583 350.625-1.14583 350.625 1.14583 348.333 1.14583ZM352.917-1.14583 355.208-1.14583 355.208 1.14583 352.917 1.14583ZM357.5-1.14583 359.792-1.14583 359.792 1.14583 357.5 1.14583ZM362.083-1.14583 364.375-1.14583 364.375 1.14583 362.083 1.14583ZM366.667-1.14583 368.958-1.14583 368.958 1.14583 366.667 1.14583ZM371.25-1.14583 373.542-1.14583 373.542 1.14583 371.25 1.14583ZM375.833-1.14583 378.125-1.14583 378.125 1.14583 375.833 1.14583ZM380.417-1.14583 382.708-1.14583 382.708 1.14583 380.417 1.14583ZM385-1.14583 387.292-1.14583 387.292 1.14583 385 1.14583ZM389.583-1.14583 391.875-1.14583 391.875 1.14583 389.583 1.14583ZM394.167-1.14583 396.458-1.14583 396.458 1.14583 394.167 1.14583ZM398.75-1.14583 401.042-1.14583 401.042 1.14583 398.75 1.14583ZM403.333-1.14583 405.625-1.14583 405.625 1.14583 403.333 1.14583ZM407.917-1.14583 410.208-1.14583 410.208 1.14583 407.917 1.14583ZM412.5-1.14583 414.792-1.14583 414.792 1.14583 412.5 1.14583ZM417.083-1.14583 419.375-1.14583 419.375 1.14583 417.083 1.14583ZM421.667-1.14583 423.958-1.14583 423.958 1.14583 421.667 1.14583ZM426.448 0.948064 426.448 3.23973 424.156 3.23973 424.156 0.948064ZM426.448 5.5314 426.448 7.82306 424.156 7.82306 424.156 5.5314ZM426.448 10.1147 426.448 12.4064 424.156 12.4064 424.156 10.1147ZM426.448 14.6981 426.448 16.9897 424.156 16.9897 424.156 14.6981ZM426.448 19.2814 426.448 21.5731 424.156 21.5731 424.156 19.2814ZM426.448 23.8647 426.448 26.1564 424.156 26.1564 424.156 23.8647ZM426.448 28.4481 426.448 30.7397 424.156 30.7397 424.156 28.4481ZM426.448 33.0314 426.448 35.3231 424.156 35.3231 424.156 33.0314ZM426.448 37.6147 426.448 39.9064 424.156 39.9064 424.156 37.6147ZM426.448 42.1981 426.448 44.4897 424.156 44.4897 424.156 42.1981ZM426.448 46.7814 426.448 49.0731 424.156 49.0731 424.156 46.7814ZM426.448 51.3647 426.448 53.6564 424.156 53.6564 424.156 51.3647ZM426.448 55.9481 426.448 58.2397 424.156 58.2397 424.156 55.9481ZM425.302 59.7833 434.469 50.6166 425.302 68.9499 416.135 50.6166Z" fill="#7030A0" transform="matrix(-1 1.22465e-16 1.22465e-16 1 1719.3 1204)"/>
    <path d="M1338 1197.82C1338 1185.21 1348.21 1175 1360.82 1175L1393.18 1175C1405.79 1175 1416 1185.21 1416 1197.82L1416 1212.18C1416 1224.79 1405.79 1235 1393.18 1235L1360.82 1235C1348.21 1235 1338 1224.79 1338 1212.18Z" fill="#D8BEEC" fill-rule="evenodd"/>
    <text font-family="Cambria Math,Cambria Math_MSFontService,sans-serif" font-weight="400" font-size="37" transform="matrix(1 0 0 1 1345.33 1219)">πΎ</text>
    <text font-family="Cambria Math,Cambria Math_MSFontService,sans-serif" font-weight="400" font-size="27" transform="matrix(1 0 0 1 1368.18 1228)">π‘–π‘›π‘΅</text>
    <text font-family="Cambria Math,Cambria Math_MSFontService,sans-serif" font-weight="400" font-size="27" transform="matrix(1 0 0 1 1374.04 1204)">π΄</text>
    <path d="M0-1.14583 2.29167-1.14583 2.29167 1.14583 0 1.14583ZM4.58333-1.14583 6.875-1.14583 6.875 1.14583 4.58333 1.14583ZM9.16667-1.14583 11.4583-1.14583 11.4583 1.14583 9.16667 1.14583ZM13.75-1.14583 16.0417-1.14583 16.0417 1.14583 13.75 1.14583ZM18.3333-1.14583 20.625-1.14583 20.625 1.14583 18.3333 1.14583ZM22.9167-1.14583 25.2083-1.14583 25.2083 1.14583 22.9167 1.14583ZM27.5-1.14583 29.7917-1.14583 29.7917 1.14583 27.5 1.14583ZM32.0833-1.14583 34.375-1.14583 34.375 1.14583 32.0833 1.14583ZM36.6667-1.14583 38.9583-1.14583 38.9583 1.14583 36.6667 1.14583ZM41.25-1.14583 43.5417-1.14583 43.5417 1.14583 41.25 1.14583ZM45.8333-1.14583 48.125-1.14583 48.125 1.14583 45.8333 1.14583ZM50.4167-1.14583 52.7083-1.14583 52.7083 1.14583 50.4167 1.14583ZM55-1.14583 57.2917-1.14583 57.2917 1.14583 55 1.14583ZM59.5833-1.14583 61.875-1.14583 61.875 1.14583 59.5833 1.14583ZM64.1667-1.14583 66.4583-1.14583 66.4583 1.14583 64.1667 1.14583ZM68.75-1.14583 71.0417-1.14583 71.0417 1.14583 68.75 1.14583ZM73.3333-1.14583 75.625-1.14583 75.625 1.14583 73.3333 1.14583ZM77.9167-1.14583 80.2083-1.14583 80.2083 1.14583 77.9167 1.14583ZM82.5-1.14583 84.7917-1.14583 84.7917 1.14583 82.5 1.14583ZM87.0833-1.14583 89.375-1.14583 89.375 1.14583 87.0833 1.14583ZM91.6667-1.14583 93.9583-1.14583 93.9583 1.14583 91.6667 1.14583ZM96.25-1.14583 98.5417-1.14583 98.5417 1.14583 96.25 1.14583ZM100.833-1.14583 103.125-1.14583 103.125 1.14583 100.833 1.14583ZM105.417-1.14583 107.708-1.14583 107.708 1.14583 105.417 1.14583ZM110-1.14583 112.292-1.14583 112.292 1.14583 110 1.14583ZM114.583-1.14583 116.875-1.14583 116.875 1.14583 114.583 1.14583ZM119.167-1.14583 121.458-1.14583 121.458 1.14583 119.167 1.14583ZM123.75-1.14583 126.042-1.14583 126.042 1.14583 123.75 1.14583ZM128.333-1.14583 130.625-1.14583 130.625 1.14583 128.333 1.14583ZM132.917-1.14583 135.208-1.14583 135.208 1.14583 132.917 1.14583ZM137.5-1.14583 139.792-1.14583 139.792 1.14583 137.5 1.14583ZM142.083-1.14583 144.375-1.14583 144.375 1.14583 142.083 1.14583ZM146.667-1.14583 148.958-1.14583 148.958 1.14583 146.667 1.14583ZM151.25-1.14583 153.542-1.14583 153.542 1.14583 151.25 1.14583ZM155.833-1.14583 158.125-1.14583 158.125 1.14583 155.833 1.14583ZM160.417-1.14583 162.708-1.14583 162.708 1.14583 160.417 1.14583ZM165-1.14583 167.292-1.14583 167.292 1.14583 165 1.14583ZM169.583-1.14583 171.875-1.14583 171.875 1.14583 169.583 1.14583ZM174.167-1.14583 176.458-1.14583 176.458 1.14583 174.167 1.14583ZM178.75-1.14583 181.042-1.14583 181.042 1.14583 178.75 1.14583ZM183.333-1.14583 185.625-1.14583 185.625 1.14583 183.333 1.14583ZM187.917-1.14583 190.208-1.14583 190.208 1.14583 187.917 1.14583ZM192.5-1.14583 194.792-1.14583 194.792 1.14583 192.5 1.14583ZM197.083-1.14583 199.375-1.14583 199.375 1.14583 197.083 1.14583ZM201.667-1.14583 203.958-1.14583 203.958 1.14583 201.667 1.14583ZM206.25-1.14583 208.542-1.14583 208.542 1.14583 206.25 1.14583ZM210.833-1.14583 213.125-1.14583 213.125 1.14583 210.833 1.14583ZM215.417-1.14583 217.708-1.14583 217.708 1.14583 215.417 1.14583ZM220-1.14583 222.292-1.14583 222.292 1.14583 220 1.14583ZM224.583-1.14583 226.875-1.14583 226.875 1.14583 224.583 1.14583ZM229.167-1.14583 231.458-1.14583 231.458 1.14583 229.167 1.14583ZM233.75-1.14583 236.042-1.14583 236.042 1.14583 233.75 1.14583ZM238.333-1.14583 240.625-1.14583 240.625 1.14583 238.333 1.14583ZM242.917-1.14583 245.208-1.14583 245.208 1.14583 242.917 1.14583ZM247.5-1.14583 249.792-1.14583 249.792 1.14583 247.5 1.14583ZM252.083-1.14583 254.375-1.14583 254.375 1.14583 252.083 1.14583ZM256.667-1.14583 258.958-1.14583 258.958 1.14583 256.667 1.14583ZM261.25-1.14583 263.542-1.14583 263.542 1.14583 261.25 1.14583ZM265.833-1.14583 268.125-1.14583 268.125 1.14583 265.833 1.14583ZM270.417-1.14583 272.708-1.14583 272.708 1.14583 270.417 1.14583ZM275-1.14583 277.292-1.14583 277.292 1.14583 275 1.14583ZM279.583-1.14583 281.875-1.14583 281.875 1.14583 279.583 1.14583ZM284.167-1.14583 286.458-1.14583 286.458 1.14583 284.167 1.14583ZM288.75-1.14583 291.042-1.14583 291.042 1.14583 288.75 1.14583ZM293.333-1.14583 295.625-1.14583 295.625 1.14583 293.333 1.14583ZM297.917-1.14583 300.208-1.14583 300.208 1.14583 297.917 1.14583ZM302.5-1.14583 304.792-1.14583 304.792 1.14583 302.5 1.14583ZM307.083-1.14583 309.375-1.14583 309.375 1.14583 307.083 1.14583ZM311.667-1.14583 313.958-1.14583 313.958 1.14583 311.667 1.14583ZM316.25-1.14583 318.542-1.14583 318.542 1.14583 316.25 1.14583ZM320.833-1.14583 323.125-1.14583 323.125 1.14583 320.833 1.14583ZM325.417-1.14583 327.708-1.14583 327.708 1.14583 325.417 1.14583ZM330-1.14583 332.292-1.14583 332.292 1.14583 330 1.14583ZM334.583-1.14583 336.875-1.14583 336.875 1.14583 334.583 1.14583ZM339.167-1.14583 341.458-1.14583 341.458 1.14583 339.167 1.14583ZM343.75-1.14583 346.042-1.14583 346.042 1.14583 343.75 1.14583ZM348.333-1.14583 350.625-1.14583 350.625 1.14583 348.333 1.14583ZM352.917-1.14583 355.208-1.14583 355.208 1.14583 352.917 1.14583ZM357.5-1.14583 359.792-1.14583 359.792 1.14583 357.5 1.14583ZM362.083-1.14583 364.375-1.14583 364.375 1.14583 362.083 1.14583ZM366.667-1.14583 368.958-1.14583 368.958 1.14583 366.667 1.14583ZM371.25-1.14583 373.542-1.14583 373.542 1.14583 371.25 1.14583ZM375.833-1.14583 378.125-1.14583 378.125 1.14583 375.833 1.14583ZM380.417-1.14583 382.708-1.14583 382.708 1.14583 380.417 1.14583ZM385-1.14583 387.292-1.14583 387.292 1.14583 385 1.14583ZM389.583-1.14583 391.875-1.14583 391.875 1.14583 389.583 1.14583ZM394.167-1.14583 396.458-1.14583 396.458 1.14583 394.167 1.14583ZM398.75-1.14583 401.042-1.14583 401.042 1.14583 398.75 1.14583ZM403.333-1.14583 405.625-1.14583 405.625 1.14583 403.333 1.14583ZM407.917-1.14583 410.208-1.14583 410.208 1.14583 407.917 1.14583ZM412.5-1.14583 414.792-1.14583 414.792 1.14583 412.5 1.14583ZM417.083-1.14583 419.375-1.14583 419.375 1.14583 417.083 1.14583ZM421.667-1.14583 423.958-1.14583 423.958 1.14583 421.667 1.14583ZM426.25-1.14583 428.542-1.14583 428.542 1.14583 426.25 1.14583ZM430.833-1.14583 433.125-1.14583 433.125 1.14583 430.833 1.14583ZM435.417-1.14583 437.708-1.14583 437.708 1.14583 435.417 1.14583ZM440-1.14583 442.292-1.14583 442.292 1.14583 440 1.14583ZM444.583-1.14583 446.875-1.14583 446.875 1.14583 444.583 1.14583ZM449.167-1.14583 451.458-1.14583 451.458 1.14583 449.167 1.14583ZM453.75-1.14583 456.042-1.14583 456.042 1.14583 453.75 1.14583ZM458.333-1.14583 460.625-1.14583 460.625 1.14583 458.333 1.14583ZM462.917-1.14583 465.208-1.14583 465.208 1.14583 462.917 1.14583ZM467.5-1.14583 469.792-1.14583 469.792 1.14583 467.5 1.14583ZM472.083-1.14583 474.375-1.14583 474.375 1.14583 472.083 1.14583ZM476.667-1.14583 478.958-1.14583 478.958 1.14583 476.667 1.14583ZM481.854 0.541339 481.854 2.83301 479.563 2.83301 479.563 0.541339ZM481.854 5.12467 481.854 7.41634 479.563 7.41634 479.563 5.12467ZM481.854 9.708 481.854 11.9997 479.563 11.9997 479.563 9.708ZM481.854 14.2913 481.854 16.583 479.563 16.583 479.563 14.2913ZM481.854 18.8747 481.854 21.1663 479.563 21.1663 479.563 18.8747ZM481.854 23.458 481.854 25.7497 479.563 25.7497 479.563 23.458ZM481.854 28.0413 481.854 30.333 479.563 30.333 479.563 28.0413ZM481.854 32.6247 481.854 34.9163 479.563 34.9163 479.563 32.6247ZM481.854 37.208 481.854 39.4997 479.563 39.4997 479.563 37.208ZM481.854 41.7913 481.854 44.083 479.563 44.083 479.563 41.7913ZM481.854 46.3747 481.854 48.6663 479.563 48.6663 479.563 46.3747ZM481.854 50.958 481.854 53.2497 479.563 53.2497 479.563 50.958ZM481.854 55.5413 481.854 57.833 479.563 57.833 479.563 55.5413ZM481.854 60.1247 481.854 62.4163 479.563 62.4163 479.563 60.1247ZM481.854 64.708 481.854 66.9997 479.563 66.9997 479.563 64.708ZM481.854 69.2913 481.854 71.583 479.563 71.583 479.563 69.2913ZM481.854 73.8747 481.854 76.1663 479.563 76.1663 479.563 73.8747ZM481.854 78.458 481.854 80.7497 479.563 80.7497 479.563 78.458ZM481.854 83.0413 481.854 85.333 479.563 85.333 479.563 83.0413ZM481.854 87.6247 481.854 89.9163 479.563 89.9163 479.563 87.6247ZM481.854 92.208 481.854 94.4997 479.563 94.4997 479.563 92.208ZM481.854 96.7913 481.854 99.083 479.563 99.083 479.563 96.7913ZM481.854 101.375 481.854 103.666 479.563 103.666 479.563 101.375ZM481.854 105.958 481.854 108.25 479.563 108.25 479.563 105.958ZM481.854 110.541 481.854 112.833 479.563 112.833 479.563 110.541ZM481.854 115.125 481.854 117.416 479.563 117.416 479.563 115.125ZM481.854 119.708 481.854 122 479.563 122 479.563 119.708ZM481.854 124.291 481.854 126.583 479.563 126.583 479.563 124.291ZM481.854 128.875 481.854 131.166 479.563 131.166 479.563 128.875ZM481.854 133.458 481.854 135.75 479.563 135.75 479.563 133.458ZM481.854 138.041 481.854 140.333 479.563 140.333 479.563 138.041ZM481.854 142.625 481.854 144.916 479.563 144.916 479.563 142.625ZM481.854 147.208 481.854 149.5 479.563 149.5 479.563 147.208ZM481.854 151.791 481.854 154.083 479.563 154.083 479.563 151.791ZM481.854 156.375 481.854 158.666 479.563 158.666 479.563 156.375ZM481.854 160.958 481.854 163.25 479.563 163.25 479.563 160.958ZM481.854 165.541 481.854 167.833 479.563 167.833 479.563 165.541ZM481.854 170.125 481.854 172.416 479.563 172.416 479.563 170.125ZM481.854 174.708 481.854 177 479.563 177 479.563 174.708ZM481.854 179.291 481.854 181.583 479.563 181.583 479.563 179.291ZM481.854 183.875 481.854 186.166 479.563 186.166 479.563 183.875ZM481.854 188.458 481.854 190.75 479.563 190.75 479.563 188.458ZM481.854 193.041 481.854 195.333 479.563 195.333 479.563 193.041ZM481.854 197.625 481.854 199.916 479.563 199.916 479.563 197.625ZM481.854 202.208 481.854 204.5 479.563 204.5 479.563 202.208ZM481.854 206.791 481.854 209.083 479.563 209.083 479.563 206.791ZM481.854 211.375 481.854 213.666 479.563 213.666 479.563 211.375ZM481.854 215.958 481.854 218.25 479.563 218.25 479.563 215.958ZM481.854 220.541 481.854 222.833 479.563 222.833 479.563 220.541ZM481.854 225.125 481.854 227.416 479.563 227.416 479.563 225.125ZM480.709 229.206 489.875 220.039 480.709 238.373 471.542 220.039Z" fill="#7030A0" transform="matrix(-1 1.22465e-16 1.22465e-16 1 1701.71 147)"/>
    <path d="M1177 204.956C1177 191.726 1187.73 181 1200.96 181L1244.04 181C1257.27 181 1268 191.726 1268 204.956L1268 220.044C1268 233.274 1257.27 244 1244.04 244L1200.96 244C1187.73 244 1177 233.274 1177 220.044Z" fill="#D8BEEC" fill-rule="evenodd"/>
    <text font-family="Cambria Math,Cambria Math_MSFontService,sans-serif" font-weight="400" font-size="37" transform="matrix(1 0 0 1 1186.29 224)">πΎ</text>
    <text font-family="Cambria Math,Cambria Math_MSFontService,sans-serif" font-weight="400" font-size="27" transform="matrix(1 0 0 1 1209.14 232)">π‘π‘π‘</text>
    <text font-family="Cambria Math,Cambria Math_MSFontService,sans-serif" font-weight="400" font-size="27" transform="matrix(1 0 0 1 1215 211)">π΄</text>
    <path d="M897.146 172 897.146 174.292 894.854 174.292 894.854 172ZM897.146 176.583 897.146 178.875 894.854 178.875 894.854 176.583ZM897.146 181.167 897.146 183.458 894.854 183.458 894.854 181.167ZM897.146 185.75 897.146 188.042 894.854 188.042 894.854 185.75ZM897.146 190.333 897.146 192.625 894.854 192.625 894.854 190.333ZM897.146 194.917 897.146 197.208 894.854 197.208 894.854 194.917ZM897.146 199.5 897.146 201.792 894.854 201.792 894.854 199.5ZM897.146 204.083 897.146 206.375 894.854 206.375 894.854 204.083ZM897.146 208.667 897.146 210.958 894.854 210.958 894.854 208.667ZM897.146 213.25 897.146 215.542 894.854 215.542 894.854 213.25ZM897.146 217.833 897.146 220.125 894.854 220.125 894.854 217.833ZM897.146 222.417 897.146 224.708 894.854 224.708 894.854 222.417ZM897.146 227 897.146 229.292 894.854 229.292 894.854 227ZM897.146 231.583 897.146 233.875 894.854 233.875 894.854 231.583ZM897.146 236.167 897.146 238.458 894.854 238.458 894.854 236.167ZM897.146 240.75 897.146 243.042 894.854 243.042 894.854 240.75ZM897.146 245.333 897.146 247.625 894.854 247.625 894.854 245.333ZM897.146 249.917 897.146 252.208 894.854 252.208 894.854 249.917ZM897.146 254.5 897.146 256.792 894.854 256.792 894.854 254.5ZM897.146 259.083 897.146 261.375 894.854 261.375 894.854 259.083ZM897.146 263.667 897.146 265.958 894.854 265.958 894.854 263.667ZM897.146 268.25 897.146 270.542 894.855 270.542 894.855 268.25ZM897.146 272.833 897.146 275.125 894.855 275.125 894.855 272.833ZM897.146 277.417 897.146 279.708 894.855 279.708 894.855 277.417ZM897.146 282 897.146 284.292 894.855 284.292 894.855 282ZM897.146 286.583 897.146 288.875 894.855 288.875 894.855 286.583ZM897.146 291.167 897.146 293.458 894.855 293.458 894.855 291.167ZM897.146 295.75 897.146 298.042 894.855 298.042 894.855 295.75ZM897.146 300.333 897.146 302.625 894.855 302.625 894.855 300.333ZM897.146 304.917 897.146 307.208 894.855 307.208 894.855 304.917ZM897.146 309.5 897.146 311.792 894.855 311.792 894.855 309.5ZM897.146 314.083 897.146 316.375 894.855 316.375 894.855 314.083ZM897.146 318.667 897.146 320.958 894.855 320.958 894.855 318.667ZM897.146 323.25 897.146 325.542 894.855 325.542 894.855 323.25ZM897.146 327.833 897.146 330.125 894.855 330.125 894.855 327.833ZM897.146 332.417 897.146 334.708 894.855 334.708 894.855 332.417ZM897.146 337 897.146 339.292 894.855 339.292 894.855 337ZM897.146 341.583 897.146 343.875 894.855 343.875 894.855 341.583ZM897.146 346.167 897.146 348.458 894.855 348.458 894.855 346.167ZM897.146 350.75 897.146 353.042 894.855 353.042 894.855 350.75ZM897.146 355.333 897.146 357.625 894.855 357.625 894.855 355.333ZM897.146 359.917 897.146 360.833 894.855 360.833 894.855 359.917ZM896.001 360.833 905.167 351.667 896.001 370 886.834 351.667Z"/>
    <path d="M1258.5 2781.06 1984.65 2781.06 1984.65 2787.94 1258.5 2787.94ZM1984.65 2784.5 1975.48 2775.33 2002.98 2784.5 1975.48 2793.67Z" fill="#BF9000"/>
    <path d="M702 2773.24C702 2758.75 713.747 2747 728.238 2747L1064.76 2747C1079.25 2747 1091 2758.75 1091 2773.24L1091 2789.76C1091 2804.25 1079.25 2816 1064.76 2816L728.238 2816C713.747 2816 702 2804.25 702 2789.76Z" fill="#E2F0D9" fill-rule="evenodd"/>
    <text font-family="Cambria Math,Cambria Math_MSFontService,sans-serif" font-weight="400" font-size="41" transform="matrix(1 0 0 1 726.391 2797)">π‘£</text>
    <text font-family="Cambria Math,Cambria Math_MSFontService,sans-serif" font-weight="400" font-size="30" transform="matrix(1 0 0 1 748.322 2807)">π‘‘π‘Άπ‘</text>
    <text font-family="Cambria Math,Cambria Math_MSFontService,sans-serif" font-weight="400" font-size="30" transform="matrix(1 0 0 1 752.332 2781)">π΄</text>
    <text font-family="Cambria Math,Cambria Math_MSFontService,sans-serif" font-weight="400" font-size="41" transform="matrix(1 0 0 1 816.889 2797)">=</text>
    <text font-family="Cambria Math,Cambria Math_MSFontService,sans-serif" font-weight="400" font-size="41" transform="matrix(1 0 0 1 859.284 2797)">π‘£</text>
    <text font-family="Cambria Math,Cambria Math_MSFontService,sans-serif" font-weight="400" font-size="30" transform="matrix(1 0 0 1 881.216 2807)">π‘‘π‘Άπ‘</text>
    <text font-family="Cambria Math,Cambria Math_MSFontService,sans-serif" font-weight="400" font-size="30" transform="matrix(1 0 0 1 885.226 2781)">π΄π‘–π‘</text>
    <text font-family="Cambria Math,Cambria Math_MSFontService,sans-serif" font-weight="400" font-size="41" transform="matrix(1 0 0 1 938.324 2797)">.</text>
    <path d="M995.858 2766.63 1004.79 2766.63 1004.79 2804.8 995.858 2804.8 995.858 2803.26 1001.46 2803.26 1001.46 2768.17 995.858 2768.17ZM958.357 2766.63 967.286 2766.63 967.286 2768.17 961.68 2768.17 961.68 2803.26 967.286 2803.26 967.286 2804.8 958.357 2804.8Z" fill-rule="evenodd"/>
    <text font-family="Cambria Math,Cambria Math_MSFontService,sans-serif" font-weight="400" font-size="41" transform="matrix(1 0 0 1 968.23 2797)">π΄</text>
    <text font-family="Cambria Math,Cambria Math_MSFontService,sans-serif" font-weight="400" font-size="30" transform="matrix(1 0 0 1 1009.43 2806)">π‘‘π‘Άπ‘</text>
    <path d="M0.0164107-3.43746 48.8111-3.20451 48.7783 3.67041-0.0164107 3.43746ZM48.7947 0.232949 39.6719-8.97738 67.1278 0.320472 39.5843 9.35575Z" fill="#BF9000" transform="matrix(1 0 0 -1 635.5 2781.82)"/>
    <path d="M1091.67 2778.07 1136.33 2780.31 1135.99 2787.18 1091.33 2784.93ZM1136.16 2783.74 1127.47 2774.13 1154.47 2784.66 1126.55 2792.44Z" fill="#BF9000"/>
    <path d="M1154.5 2776.98C1154.5 2762.91 1165.91 2751.5 1179.98 2751.5L1233.02 2751.5C1247.09 2751.5 1258.5 2762.91 1258.5 2776.98L1258.5 2793.02C1258.5 2807.09 1247.09 2818.5 1233.02 2818.5L1179.98 2818.5C1165.91 2818.5 1154.5 2807.09 1154.5 2793.02Z" stroke="#FF0000" stroke-width="4.58333" stroke-linejoin="round" stroke-miterlimit="10" fill="#E2F0D9" fill-rule="evenodd"/>
    <text font-family="Cambria Math,Cambria Math_MSFontService,sans-serif" font-weight="400" font-size="41" transform="matrix(1 0 0 1 1166.96 2799)">π‘</text>
    <text font-family="Cambria Math,Cambria Math_MSFontService,sans-serif" font-weight="400" font-size="30" transform="matrix(1 0 0 1 1188.5 2809)">π‘‘π‘Άπ‘</text>
    <text font-family="Cambria Math,Cambria Math_MSFontService,sans-serif" font-weight="400" font-size="30" transform="matrix(1 0 0 1 1191.71 2783)">π΄</text>
    <path d="M1153 2896.24C1153 2881.75 1164.75 2870 1179.24 2870L1516.76 2870C1531.25 2870 1543 2881.75 1543 2896.24L1543 2912.76C1543 2927.25 1531.25 2939 1516.76 2939L1179.24 2939C1164.75 2939 1153 2927.25 1153 2912.76Z" fill="#E7E6E6" fill-rule="evenodd"/>
    <text fill="#7F7F7F" font-family="Cambria Math,Cambria Math_MSFontService,sans-serif" font-weight="400" font-size="41" transform="matrix(1 0 0 1 1178.09 2921)">π‘</text>
    <text fill="#7F7F7F" font-family="Cambria Math,Cambria Math_MSFontService,sans-serif" font-weight="400" font-size="30" transform="matrix(1 0 0 1 1199.63 2931)">π‘‘π‘Άπ‘</text>
    <text fill="#7F7F7F" font-family="Cambria Math,Cambria Math_MSFontService,sans-serif" font-weight="400" font-size="30" transform="matrix(1 0 0 1 1202.84 2904)">π΄</text>
    <text fill="#7F7F7F" font-family="Cambria Math,Cambria Math_MSFontService,sans-serif" font-weight="400" font-size="41" transform="matrix(1 0 0 1 1268.19 2921)">=</text>
    <path d="M1352.66 2890.06 1361.58 2890.06 1361.58 2928.24 1352.66 2928.24 1352.66 2926.7 1358.26 2926.7 1358.26 2891.6 1352.66 2891.6ZM1315.16 2890.06 1324.08 2890.06 1324.08 2891.6 1318.48 2891.6 1318.48 2926.7 1324.08 2926.7 1324.08 2928.24 1315.16 2928.24Z" fill="#7F7F7F" fill-rule="evenodd"/>
    <text fill="#7F7F7F" font-family="Cambria Math,Cambria Math_MSFontService,sans-serif" font-weight="400" font-size="41" transform="matrix(1 0 0 1 1325.03 2921)">π΄</text>
    <text fill="#7F7F7F" font-family="Cambria Math,Cambria Math_MSFontService,sans-serif" font-weight="400" font-size="30" transform="matrix(1 0 0 1 1366.23 2929)">π‘‘π‘Άπ‘</text>
    <text fill="#7F7F7F" font-family="Cambria Math,Cambria Math_MSFontService,sans-serif" font-weight="400" font-size="41" transform="matrix(1 0 0 1 1423.34 2921)">.</text>
    <text fill="#7F7F7F" font-family="Cambria Math,Cambria Math_MSFontService,sans-serif" font-weight="400" font-size="41" transform="matrix(1 0 0 1 1438.81 2921)">π‘</text>
    <text fill="#7F7F7F" font-family="Cambria Math,Cambria Math_MSFontService,sans-serif" font-weight="400" font-size="30" transform="matrix(1 0 0 1 1460.35 2931)">π‘‘π‘Άπ‘</text>
    <text fill="#7F7F7F" font-family="Cambria Math,Cambria Math_MSFontService,sans-serif" font-weight="400" font-size="30" transform="matrix(1 0 0 1 1463.56 2904)">π΄π‘–π‘</text>
    <path d="M3.43747-0.0152299 3.58649 33.6201-3.28844 33.6506-3.43747 0.0152299ZM0.149023 33.6353 9.27499 24.4282 0.230249 51.9685-9.05817 24.5094Z" fill="#7F7F7F" transform="matrix(-1 0 0 1 1206.73 2818.5)"/>
    <path d="M949.5 3082.06 1688.71 3082.06 1688.71 3088.94 949.5 3088.94ZM1688.71 3085.5 1679.54 3076.33 1707.04 3085.5 1679.54 3094.67Z" fill="#4472C4"/>
    <path d="M845.5 3077.12C845.5 3062.42 857.417 3050.5 872.118 3050.5L922.882 3050.5C937.583 3050.5 949.5 3062.42 949.5 3077.12L949.5 3093.88C949.5 3108.58 937.583 3120.5 922.882 3120.5L872.118 3120.5C857.417 3120.5 845.5 3108.58 845.5 3093.88Z" stroke="#00B050" stroke-width="4.58333" stroke-linejoin="round" stroke-miterlimit="10" fill="#E2F0D9" fill-rule="evenodd"/>
    <text font-family="Cambria Math,Cambria Math_MSFontService,sans-serif" font-weight="400" font-size="41" transform="matrix(1 0 0 1 857.336 3101)">π‘£</text>
    <text font-family="Cambria Math,Cambria Math_MSFontService,sans-serif" font-weight="400" font-size="30" transform="matrix(1 0 0 1 879.268 3111)">π‘‘π‘Άπ‘</text>
    <text font-family="Cambria Math,Cambria Math_MSFontService,sans-serif" font-weight="400" font-size="30" transform="matrix(1 0 0 1 883.278 3085)">π΄π‘–π‘</text>
    <path d="M1707.5 3077.12C1707.5 3062.42 1719.42 3050.5 1734.12 3050.5L1786.88 3050.5C1801.58 3050.5 1813.5 3062.42 1813.5 3077.12L1813.5 3093.88C1813.5 3108.58 1801.58 3120.5 1786.88 3120.5L1734.12 3120.5C1719.42 3120.5 1707.5 3108.58 1707.5 3093.88Z" stroke="#FF0000" stroke-width="4.58333" stroke-linejoin="round" stroke-miterlimit="10" fill="#E2F0D9" fill-rule="evenodd"/>
    <text font-family="Cambria Math,Cambria Math_MSFontService,sans-serif" font-weight="400" font-size="41" transform="matrix(1 0 0 1 1720.17 3101)">π‘</text>
    <text font-family="Cambria Math,Cambria Math_MSFontService,sans-serif" font-weight="400" font-size="30" transform="matrix(1 0 0 1 1741.71 3111)">π‘‘π‘Άπ‘</text>
    <text font-family="Cambria Math,Cambria Math_MSFontService,sans-serif" font-weight="400" font-size="30" transform="matrix(1 0 0 1 1744.92 3085)">π΄π‘–π‘</text>
    <path d="M0.0293628-3.43737 171.602-1.97176 171.543 4.90299-0.0293628 3.43737ZM171.573 1.46561 162.484-7.77902 189.905 1.62221 162.328 10.5536Z" fill="#4472C4" transform="matrix(1 0 0 -1 1813.5 3085.12)"/>
    <path d="M0.0270562-3.43739 187.836-1.95912 187.782 4.91567-0.0270562 3.43739ZM187.809 1.47827 178.715-7.76026 206.142 1.62257 178.571 10.5725Z" fill="#4472C4" transform="matrix(1 0 0 -1 639.5 3087.12)"/>
    <path d="M1209.94 2378.5 1209.94 2597.17 1203.06 2597.17 1203.06 2378.5ZM1206.5 2597.17 1215.67 2588 1206.5 2615.5 1197.33 2588Z" fill="#BF9000"/>
    <path d="M1423.5 725.16C1423.5 708.779 1436.78 695.5 1453.16 695.5L1510.84 695.5C1527.22 695.5 1540.5 708.779 1540.5 725.16L1540.5 743.84C1540.5 760.221 1527.22 773.5 1510.84 773.5L1453.16 773.5C1436.78 773.5 1423.5 760.221 1423.5 743.84Z" stroke="#00B050" stroke-width="4.58333" stroke-linejoin="round" stroke-miterlimit="10" fill="#E2F0D9" fill-rule="evenodd"/>
    <text font-family="Cambria Math,Cambria Math_MSFontService,sans-serif" font-weight="400" font-size="41" transform="matrix(1 0 0 1 1433.89 747)">π‘£</text>
    <text font-family="Cambria Math,Cambria Math_MSFontService,sans-serif" font-weight="400" font-size="30" transform="matrix(1 0 0 1 1455.82 756)">π‘π‘π‘1</text>
    <text font-family="Cambria Math,Cambria Math_MSFontService,sans-serif" font-weight="400" font-size="30" transform="matrix(1 0 0 1 1459.83 731)">π΄</text>
    <path d="M1701.5 725.16C1701.5 708.779 1714.78 695.5 1731.16 695.5L1788.84 695.5C1805.22 695.5 1818.5 708.779 1818.5 725.16L1818.5 743.84C1818.5 760.221 1805.22 773.5 1788.84 773.5L1731.16 773.5C1714.78 773.5 1701.5 760.221 1701.5 743.84Z" stroke="#00B050" stroke-width="4.58333" stroke-linejoin="round" stroke-miterlimit="10" fill="#E2F0D9" fill-rule="evenodd"/>
    <text font-family="Cambria Math,Cambria Math_MSFontService,sans-serif" font-weight="400" font-size="41" transform="matrix(1 0 0 1 1712.19 747)">π‘£</text>
    <text font-family="Cambria Math,Cambria Math_MSFontService,sans-serif" font-weight="400" font-size="30" transform="matrix(1 0 0 1 1734.12 756)">π‘π‘π‘1</text>
    <text font-family="Cambria Math,Cambria Math_MSFontService,sans-serif" font-weight="400" font-size="30" transform="matrix(1 0 0 1 1737.93 731)">π‘†</text>
    <path d="M1423.5 1597.16C1423.5 1580.78 1436.78 1567.5 1453.16 1567.5L1510.84 1567.5C1527.22 1567.5 1540.5 1580.78 1540.5 1597.16L1540.5 1615.84C1540.5 1632.22 1527.22 1645.5 1510.84 1645.5L1453.16 1645.5C1436.78 1645.5 1423.5 1632.22 1423.5 1615.84Z" stroke="#00B050" stroke-width="4.58333" stroke-linejoin="round" stroke-miterlimit="10" fill="#E2F0D9" fill-rule="evenodd"/>
    <text font-family="Cambria Math,Cambria Math_MSFontService,sans-serif" font-weight="400" font-size="41" transform="matrix(1 0 0 1 1433.89 1619)">π‘£</text>
    <text font-family="Cambria Math,Cambria Math_MSFontService,sans-serif" font-weight="400" font-size="30" transform="matrix(1 0 0 1 1455.82 1628)">π‘π‘π‘2</text>
    <text font-family="Cambria Math,Cambria Math_MSFontService,sans-serif" font-weight="400" font-size="30" transform="matrix(1 0 0 1 1459.83 1603)">π΄</text>
    <path d="M1701.5 1597.16C1701.5 1580.78 1714.78 1567.5 1731.16 1567.5L1788.84 1567.5C1805.22 1567.5 1818.5 1580.78 1818.5 1597.16L1818.5 1615.84C1818.5 1632.22 1805.22 1645.5 1788.84 1645.5L1731.16 1645.5C1714.78 1645.5 1701.5 1632.22 1701.5 1615.84Z" stroke="#00B050" stroke-width="4.58333" stroke-linejoin="round" stroke-miterlimit="10" fill="#E2F0D9" fill-rule="evenodd"/>
    <text font-family="Cambria Math,Cambria Math_MSFontService,sans-serif" font-weight="400" font-size="41" transform="matrix(1 0 0 1 1712.19 1619)">π‘£</text>
    <text font-family="Cambria Math,Cambria Math_MSFontService,sans-serif" font-weight="400" font-size="30" transform="matrix(1 0 0 1 1734.12 1628)">π‘π‘π‘2</text>
    <text font-family="Cambria Math,Cambria Math_MSFontService,sans-serif" font-weight="400" font-size="30" transform="matrix(1 0 0 1 1737.93 1603)">π‘†</text>
    <path d="M1233.24 2161.13 1203.06 2161.13 1203.06 2128.5 1209.94 2128.5 1209.94 2157.69 1206.5 2154.25 1233.24 2154.25ZM1233.24 2157.69 1224.07 2148.52 1251.57 2157.69 1224.07 2166.86Z" fill="#BF9000"/>
    <path d="M3.4375-2.88608e-06 3.43785 411.512-3.43715 411.512-3.4375 2.88608e-06ZM0.0003455 411.512 9.167 402.345 0.000360892 429.845-9.16633 402.345Z" fill="#4472C4" transform="matrix(-1 0 0 1 1760.5 2621.5)"/>
    <path d="M0 22.4353C-2.89638e-15 10.0446 10.0446-5.79277e-15 22.4352-5.79277e-15L68.5648 0C80.9555-5.79277e-15 91.0001 10.0446 91.0001 22.4353L91.0001 36.5645C91.0001 48.9552 80.9555 58.9998 68.5648 58.9998L22.4352 58.9998C10.0446 58.9998 0 48.9552 0 36.5645Z" fill="#D8BEEC" fill-rule="evenodd" transform="matrix(-1 0 0 1 1265 2973)"/>
    <text font-family="Cambria Math,Cambria Math_MSFontService,sans-serif" font-weight="400" font-size="37" transform="matrix(1 0 0 1 1182.32 3016)">πΎ</text>
    <text font-family="Cambria Math,Cambria Math_MSFontService,sans-serif" font-weight="400" font-size="27" transform="matrix(1 0 0 1 1205.17 3024)">π‘‘π‘Άπ‘</text>
    <text font-family="Cambria Math,Cambria Math_MSFontService,sans-serif" font-weight="400" font-size="27" transform="matrix(1 0 0 1 1211.03 3001)">π΄</text>
    <path d="M1763.94 2098.5 1763.94 2535.36 1757.06 2535.36 1757.06 2098.5ZM1760.5 2535.36 1769.67 2526.19 1760.5 2553.69 1751.33 2526.19Z" fill="#4472C4"/>
    <path d="M1701.5 2579.36C1701.5 2565.08 1713.08 2553.5 1727.36 2553.5L1792.64 2553.5C1806.92 2553.5 1818.5 2565.08 1818.5 2579.36L1818.5 2595.64C1818.5 2609.92 1806.92 2621.5 1792.64 2621.5L1727.36 2621.5C1713.08 2621.5 1701.5 2609.92 1701.5 2595.64Z" stroke="#00B050" stroke-width="4.58333" stroke-linejoin="round" stroke-miterlimit="10" fill="#E2F0D9" fill-rule="evenodd"/>
    <text font-family="Cambria Math,Cambria Math_MSFontService,sans-serif" font-weight="400" font-size="41" transform="matrix(1 0 0 1 1728.77 2602)">π‘£</text>
    <text font-family="Cambria Math,Cambria Math_MSFontService,sans-serif" font-weight="400" font-size="30" transform="matrix(1 0 0 1 1750.7 2612)">?</text>
    <text font-family="Cambria Math,Cambria Math_MSFontService,sans-serif" font-weight="400" font-size="30" transform="matrix(1 0 0 1 1763.3 2612)">?</text>
    <text font-family="Cambria Math,Cambria Math_MSFontService,sans-serif" font-weight="400" font-size="30" transform="matrix(1 0 0 1 1775.91 2612)">?</text>
    <text font-family="Cambria Math,Cambria Math_MSFontService,sans-serif" font-weight="400" font-size="30" transform="matrix(1 0 0 1 1754.5 2585)">π‘†</text>
    <path d="M1122.5 2491.09C1122.5 2481.37 1130.37 2473.5 1140.09 2473.5L1273.91 2473.5C1283.63 2473.5 1291.5 2481.37 1291.5 2491.09L1291.5 2533.91C1291.5 2543.63 1283.63 2551.5 1273.91 2551.5L1140.09 2551.5C1130.37 2551.5 1122.5 2543.63 1122.5 2533.91Z" stroke="#172C51" stroke-width="4.58333" stroke-miterlimit="8" fill="url(#fill4)" fill-rule="evenodd"/>
    <text fill="#7F6000" font-family="Calibri,Calibri_MSFontService,sans-serif" font-weight="700" font-size="46" transform="matrix(1 0 0 1 1182.06 2527)">Re</text>
    <path d="M0-3.4375 48.5065-3.4375 48.5065 124.885 41.6315 124.885 41.6315 0 45.069 3.4375 0 3.4375ZM45.069 124.885 54.2356 115.718 45.069 143.218 35.9023 115.718Z" fill="#BF9000" transform="matrix(-1 1.22465e-16 1.22465e-16 1 1251.57 2157.5)"/>
    <path d="M0-1.14583 2.29167-1.14583 2.29167 1.14583 0 1.14583ZM4.58333-1.14583 6.875-1.14583 6.875 1.14583 4.58333 1.14583ZM9.16667-1.14583 11.4583-1.14583 11.4583 1.14583 9.16667 1.14583ZM13.75-1.14583 16.0417-1.14583 16.0417 1.14583 13.75 1.14583ZM18.3333-1.14583 20.625-1.14583 20.625 1.14583 18.3333 1.14583ZM22.9167-1.14583 25.2083-1.14583 25.2083 1.14583 22.9167 1.14583ZM27.5-1.14583 29.7917-1.14583 29.7917 1.14583 27.5 1.14583ZM32.0833-1.14583 34.375-1.14583 34.375 1.14583 32.0833 1.14583ZM36.6667-1.14583 38.9583-1.14583 38.9583 1.14583 36.6667 1.14583ZM41.25-1.14583 43.5417-1.14583 43.5417 1.14583 41.25 1.14583ZM45.8333-1.14583 48.125-1.14583 48.125 1.14583 45.8333 1.14583ZM50.4167-1.14583 52.7083-1.14583 52.7083 1.14583 50.4167 1.14583ZM55-1.14583 57.2917-1.14583 57.2917 1.14583 55 1.14583ZM59.5833-1.14583 61.875-1.14583 61.875 1.14583 59.5833 1.14583ZM64.1667-1.14583 66.4583-1.14583 66.4583 1.14583 64.1667 1.14583ZM68.75-1.14583 71.0417-1.14583 71.0417 1.14583 68.75 1.14583ZM73.3333-1.14583 75.625-1.14583 75.625 1.14583 73.3333 1.14583ZM77.9167-1.14583 80.2083-1.14583 80.2083 1.14583 77.9167 1.14583ZM82.5-1.14583 84.7917-1.14583 84.7917 1.14583 82.5 1.14583ZM87.0833-1.14583 89.375-1.14583 89.375 1.14583 87.0833 1.14583ZM91.6667-1.14583 93.9583-1.14583 93.9583 1.14583 91.6667 1.14583ZM96.25-1.14583 98.5417-1.14583 98.5417 1.14583 96.25 1.14583ZM100.833-1.14583 103.125-1.14583 103.125 1.14583 100.833 1.14583ZM105.417-1.14583 107.708-1.14583 107.708 1.14583 105.417 1.14583ZM110-1.14583 112.292-1.14583 112.292 1.14583 110 1.14583ZM114.583-1.14583 116.875-1.14583 116.875 1.14583 114.583 1.14583ZM119.167-1.14583 121.458-1.14583 121.458 1.14583 119.167 1.14583ZM123.75-1.14583 126.042-1.14583 126.042 1.14583 123.75 1.14583ZM128.333-1.14583 130.625-1.14583 130.625 1.14583 128.333 1.14583ZM132.917-1.14583 135.208-1.14583 135.208 1.14583 132.917 1.14583ZM137.5-1.14583 139.792-1.14583 139.792 1.14583 137.5 1.14583ZM142.083-1.14583 144.375-1.14583 144.375 1.14583 142.083 1.14583ZM146.667-1.14583 148.958-1.14583 148.958 1.14583 146.667 1.14583ZM151.25-1.14583 153.542-1.14583 153.542 1.14583 151.25 1.14583ZM155.833-1.14583 158.125-1.14583 158.125 1.14583 155.833 1.14583ZM160.417-1.14583 162.708-1.14583 162.708 1.14583 160.417 1.14583ZM165-1.14583 167.292-1.14583 167.292 1.14583 165 1.14583ZM169.583-1.14583 171.875-1.14583 171.875 1.14583 169.583 1.14583ZM174.167-1.14583 176.458-1.14583 176.458 1.14583 174.167 1.14583ZM178.75-1.14583 181.042-1.14583 181.042 1.14583 178.75 1.14583ZM183.333-1.14583 185.625-1.14583 185.625 1.14583 183.333 1.14583ZM187.917-1.14583 190.208-1.14583 190.208 1.14583 187.917 1.14583ZM192.5-1.14583 194.792-1.14583 194.792 1.14583 192.5 1.14583ZM197.083-1.14583 199.375-1.14583 199.375 1.14583 197.083 1.14583ZM201.667-1.14583 203.958-1.14583 203.958 1.14583 201.667 1.14583ZM206.25-1.14583 208.542-1.14583 208.542 1.14583 206.25 1.14583ZM210.833-1.14583 213.125-1.14583 213.125 1.14583 210.833 1.14583ZM215.417-1.14583 217.708-1.14583 217.708 1.14583 215.417 1.14583ZM220-1.14583 222.292-1.14583 222.292 1.14583 220 1.14583ZM224.583-1.14583 226.875-1.14583 226.875 1.14583 224.583 1.14583ZM229.167-1.14583 231.458-1.14583 231.458 1.14583 229.167 1.14583ZM233.75-1.14583 236.042-1.14583 236.042 1.14583 233.75 1.14583ZM238.333-1.14583 240.625-1.14583 240.625 1.14583 238.333 1.14583ZM242.917-1.14583 245.208-1.14583 245.208 1.14583 242.917 1.14583ZM247.5-1.14583 249.792-1.14583 249.792 1.14583 247.5 1.14583ZM252.083-1.14583 254.375-1.14583 254.375 1.14583 252.083 1.14583ZM256.667-1.14583 258.958-1.14583 258.958 1.14583 256.667 1.14583ZM261.25-1.14583 263.542-1.14583 263.542 1.14583 261.25 1.14583ZM265.833-1.14583 268.125-1.14583 268.125 1.14583 265.833 1.14583ZM270.417-1.14583 272.708-1.14583 272.708 1.14583 270.417 1.14583ZM275-1.14583 277.292-1.14583 277.292 1.14583 275 1.14583ZM279.583-1.14583 281.875-1.14583 281.875 1.14583 279.583 1.14583ZM284.167-1.14583 286.458-1.14583 286.458 1.14583 284.167 1.14583ZM288.75-1.14583 291.042-1.14583 291.042 1.14583 288.75 1.14583ZM293.333-1.14583 295.625-1.14583 295.625 1.14583 293.333 1.14583ZM297.917-1.14583 300.208-1.14583 300.208 1.14583 297.917 1.14583ZM302.5-1.14583 304.792-1.14583 304.792 1.14583 302.5 1.14583ZM307.083-1.14583 309.375-1.14583 309.375 1.14583 307.083 1.14583ZM311.667-1.14583 313.958-1.14583 313.958 1.14583 311.667 1.14583ZM316.25-1.14583 318.542-1.14583 318.542 1.14583 316.25 1.14583ZM320.833-1.14583 323.125-1.14583 323.125 1.14583 320.833 1.14583ZM325.417-1.14583 327.708-1.14583 327.708 1.14583 325.417 1.14583ZM330-1.14583 332.292-1.14583 332.292 1.14583 330 1.14583ZM334.583-1.14583 336.875-1.14583 336.875 1.14583 334.583 1.14583ZM339.167-1.14583 341.458-1.14583 341.458 1.14583 339.167 1.14583ZM343.75-1.14583 346.042-1.14583 346.042 1.14583 343.75 1.14583ZM348.333-1.14583 350.625-1.14583 350.625 1.14583 348.333 1.14583ZM352.917-1.14583 355.208-1.14583 355.208 1.14583 352.917 1.14583ZM357.5-1.14583 359.792-1.14583 359.792 1.14583 357.5 1.14583ZM362.083-1.14583 364.375-1.14583 364.375 1.14583 362.083 1.14583ZM366.667-1.14583 368.958-1.14583 368.958 1.14583 366.667 1.14583ZM371.25-1.14583 373.542-1.14583 373.542 1.14583 371.25 1.14583ZM375.833-1.14583 378.125-1.14583 378.125 1.14583 375.833 1.14583ZM380.417-1.14583 382.708-1.14583 382.708 1.14583 380.417 1.14583ZM385-1.14583 387.292-1.14583 387.292 1.14583 385 1.14583ZM389.583-1.14583 391.875-1.14583 391.875 1.14583 389.583 1.14583ZM394.167-1.14583 396.458-1.14583 396.458 1.14583 394.167 1.14583ZM398.75-1.14583 401.042-1.14583 401.042 1.14583 398.75 1.14583ZM403.333-1.14583 405.471-1.14583 405.471 1.29957 403.18 1.29957 403.18 0 404.325 1.14583 403.333 1.14583ZM405.471 3.59124 405.471 5.88291 403.18 5.88291 403.18 3.59124ZM405.471 8.17457 405.471 10.4662 403.18 10.4662 403.18 8.17457ZM405.471 12.7579 405.471 15.0496 403.18 15.0496 403.18 12.7579ZM405.471 17.3412 405.471 19.6329 403.18 19.6329 403.18 17.3412ZM405.471 21.9246 405.471 24.2162 403.18 24.2162 403.18 21.9246ZM405.471 26.5079 405.471 28.7996 403.18 28.7996 403.18 26.5079ZM405.471 31.0912 405.471 33.3829 403.18 33.3829 403.18 31.0912ZM405.471 35.6746 405.471 37.9662 403.18 37.9662 403.18 35.6746ZM405.471 40.2579 405.471 42.5496 403.18 42.5496 403.18 40.2579ZM405.471 44.8412 405.471 47.1329 403.18 47.1329 403.18 44.8412ZM404.325 48.3888 413.492 39.2221 404.325 57.5555 395.159 39.2221Z" fill="#7030A0" transform="matrix(-1 1.22465e-16 1.22465e-16 1 1707.33 2066)"/>
    <path d="M1348 2061.06C1348 2048.87 1357.87 2039 1370.05 2039L1403.94 2039C1416.13 2039 1426 2048.87 1426 2061.06L1426 2074.94C1426 2087.13 1416.13 2097 1403.94 2097L1370.05 2097C1357.87 2097 1348 2087.13 1348 2074.94Z" fill="#D8BEEC" fill-rule="evenodd"/>
    <text font-family="Cambria Math,Cambria Math_MSFontService,sans-serif" font-weight="400" font-size="37" transform="matrix(1 0 0 1 1354.08 2081)">πΎ</text>
    <text font-family="Cambria Math,Cambria Math_MSFontService,sans-serif" font-weight="400" font-size="27" transform="matrix(1 0 0 1 1376.93 2089)">πΈπΏπΉ</text>
    <text font-family="Cambria Math,Cambria Math_MSFontService,sans-serif" font-weight="400" font-size="27" transform="matrix(1 0 0 1 1382.8 2067)">π΄</text>
    <path d="M1566 721.66C1566 705.279 1579.28 692 1595.66 692L1653.34 692C1669.72 692 1683 705.279 1683 721.66L1683 740.34C1683 756.721 1669.72 770 1653.34 770L1595.66 770C1579.28 770 1566 756.721 1566 740.34Z" fill="#E2F0D9" fill-rule="evenodd"/>
    <text font-family="Cambria Math,Cambria Math_MSFontService,sans-serif" font-weight="400" font-size="41" transform="matrix(1 0 0 1 1575.99 746)">π‘£</text>
    <text font-family="Cambria Math,Cambria Math_MSFontService,sans-serif" font-weight="400" font-size="30" transform="matrix(1 0 0 1 1597.92 756)">π‘π‘‘π‘£</text>
    <text font-family="Cambria Math,Cambria Math_MSFontService,sans-serif" font-weight="400" font-size="30" transform="matrix(1 0 0 1 1653.5 756)">1</text>
    <text font-family="Cambria Math,Cambria Math_MSFontService,sans-serif" font-weight="400" font-size="30" transform="matrix(1 0 0 1 1601.93 730)">π΄</text>
    <path d="M1566 1596.66C1566 1580.28 1579.28 1567 1595.66 1567L1653.34 1567C1669.72 1567 1683 1580.28 1683 1596.66L1683 1615.34C1683 1631.72 1669.72 1645 1653.34 1645L1595.66 1645C1579.28 1645 1566 1631.72 1566 1615.34Z" fill="#E2F0D9" fill-rule="evenodd"/>
    <text font-family="Cambria Math,Cambria Math_MSFontService,sans-serif" font-weight="400" font-size="41" transform="matrix(1 0 0 1 1575.99 1621)">π‘£</text>
    <text font-family="Cambria Math,Cambria Math_MSFontService,sans-serif" font-weight="400" font-size="30" transform="matrix(1 0 0 1 1597.92 1631)">π‘π‘‘π‘£2</text>
    <text font-family="Cambria Math,Cambria Math_MSFontService,sans-serif" font-weight="400" font-size="30" transform="matrix(1 0 0 1 1601.93 1605)">π΄</text>
    <path d="M1148 1209.66C1148 1193.28 1161.28 1180 1177.66 1180L1235.34 1180C1251.72 1180 1265 1193.28 1265 1209.66L1265 1228.34C1265 1244.72 1251.72 1258 1235.34 1258L1177.66 1258C1161.28 1258 1148 1244.72 1148 1228.34Z" fill="#E2F0D9" fill-rule="evenodd"/>
    <text font-family="Cambria Math,Cambria Math_MSFontService,sans-serif" font-weight="400" font-size="41" transform="matrix(1 0 0 1 1171.74 1234)">π‘£</text>
    <text font-family="Cambria Math,Cambria Math_MSFontService,sans-serif" font-weight="400" font-size="30" transform="matrix(1 0 0 1 1193.67 1243)">π‘</text>
    <text font-family="Cambria Math,Cambria Math_MSFontService,sans-serif" font-weight="400" font-size="30" transform="matrix(1 0 0 1 1221.74 1243)">1</text>
    <text font-family="Cambria Math,Cambria Math_MSFontService,sans-serif" font-weight="400" font-size="30" transform="matrix(1 0 0 1 1197.68 1218)">π΄</text>
    <path d="M1148 2079.66C1148 2063.28 1161.28 2050 1177.66 2050L1235.34 2050C1251.72 2050 1265 2063.28 1265 2079.66L1265 2098.34C1265 2114.72 1251.72 2128 1235.34 2128L1177.66 2128C1161.28 2128 1148 2114.72 1148 2098.34Z" fill="#E2F0D9" fill-rule="evenodd"/>
    <text font-family="Cambria Math,Cambria Math_MSFontService,sans-serif" font-weight="400" font-size="41" transform="matrix(1 0 0 1 1171.74 2103)">π‘£</text>
    <text font-family="Cambria Math,Cambria Math_MSFontService,sans-serif" font-weight="400" font-size="30" transform="matrix(1 0 0 1 1193.67 2113)">π‘2</text>
    <text font-family="Cambria Math,Cambria Math_MSFontService,sans-serif" font-weight="400" font-size="30" transform="matrix(1 0 0 1 1197.68 2088)">π΄</text>
    <path d="M1148 1376.66C1148 1360.28 1161.28 1347 1177.66 1347L1235.34 1347C1251.72 1347 1265 1360.28 1265 1376.66L1265 1395.34C1265 1411.72 1251.72 1425 1235.34 1425L1177.66 1425C1161.28 1425 1148 1411.72 1148 1395.34Z" fill="#E2F0D9" fill-rule="evenodd"/>
    <text font-family="Cambria Math,Cambria Math_MSFontService,sans-serif" font-weight="400" font-size="41" transform="matrix(1 0 0 1 1171.74 1400)">π‘£</text>
    <text font-family="Cambria Math,Cambria Math_MSFontService,sans-serif" font-weight="400" font-size="30" transform="matrix(1 0 0 1 1193.67 1409)">π‘2</text>
    <text font-family="Cambria Math,Cambria Math_MSFontService,sans-serif" font-weight="400" font-size="30" transform="matrix(1 0 0 1 1197.68 1384)">π΄</text>
    <path d="M1148 999.717C1148 986.066 1159.07 975 1172.72 975L1240.28 975C1253.93 975 1265 986.066 1265 999.717L1265 1015.28C1265 1028.93 1253.93 1040 1240.28 1040L1172.72 1040C1159.07 1040 1148 1028.93 1148 1015.28Z" fill="#E2F0D9" fill-rule="evenodd"/>
    <text font-family="Cambria Math,Cambria Math_MSFontService,sans-serif" font-weight="400" font-size="41" transform="matrix(1 0 0 1 1171.73 1022)">π‘£</text>
    <text font-family="Cambria Math,Cambria Math_MSFontService,sans-serif" font-weight="400" font-size="30" transform="matrix(1 0 0 1 1193.67 1031)">π‘1</text>
    <text font-family="Cambria Math,Cambria Math_MSFontService,sans-serif" font-weight="400" font-size="30" transform="matrix(1 0 0 1 1197.68 1006)">π΄</text>
    <path d="M1148 2329.66C1148 2313.28 1161.28 2300 1177.66 2300L1235.34 2300C1251.72 2300 1265 2313.28 1265 2329.66L1265 2348.34C1265 2364.72 1251.72 2378 1235.34 2378L1177.66 2378C1161.28 2378 1148 2364.72 1148 2348.34Z" fill="#E2F0D9" fill-rule="evenodd"/>
    <text font-family="Cambria Math,Cambria Math_MSFontService,sans-serif" font-weight="400" font-size="41" transform="matrix(1 0 0 1 1171.74 2354)">π‘£</text>
    <text font-family="Cambria Math,Cambria Math_MSFontService,sans-serif" font-weight="400" font-size="30" transform="matrix(1 0 0 1 1193.67 2363)">π‘3</text>
    <text font-family="Cambria Math,Cambria Math_MSFontService,sans-serif" font-weight="400" font-size="30" transform="matrix(1 0 0 1 1197.68 2338)">π΄</text>
    <path d="M1148 2644.66C1148 2628.28 1161.28 2615 1177.66 2615L1235.34 2615C1251.72 2615 1265 2628.28 1265 2644.66L1265 2663.34C1265 2679.72 1251.72 2693 1235.34 2693L1177.66 2693C1161.28 2693 1148 2679.72 1148 2663.34Z" fill="#E2F0D9" fill-rule="evenodd"/>
    <text font-family="Cambria Math,Cambria Math_MSFontService,sans-serif" font-weight="400" font-size="41" transform="matrix(1 0 0 1 1171.74 2669)">π‘£</text>
    <text font-family="Cambria Math,Cambria Math_MSFontService,sans-serif" font-weight="400" font-size="30" transform="matrix(1 0 0 1 1193.67 2678)">π‘3</text>
    <text font-family="Cambria Math,Cambria Math_MSFontService,sans-serif" font-weight="400" font-size="30" transform="matrix(1 0 0 1 1197.68 2653)">π΄</text>
    <path d="M3.4375-2.14864e-05 3.43775 39.404-3.43725 39.4041-3.4375 2.14864e-05ZM0.000246298 39.404 9.16686 30.2373 0.000360892 57.7374-9.16648 30.2374Z" fill="#BF9000" transform="matrix(-1 0 0 1 1206.5 2693.5)"/>
  </g>
</svg>
