<?xml version="1.0" encoding="UTF-8"?><svg id="Layer_2" xmlns="http://www.w3.org/2000/svg" viewBox="0 0 2679.47 6010.52"><defs><style>.cls-1{fill:#e5e3e2;stroke:#938c8c;stroke-linecap:round;stroke-linejoin:round;stroke-width:.5px;}.cls-2{fill:none;}</style></defs><g id="body_outline_front_male"><path class="cls-1" d="M1627.46,400.35c-6.35-1.13-10.94-.53-15.44,1.49l.03-.05c7.05-42.04,20.92-96.95,22.16-115.35,2.29-34.29,3.06-129.48-64.2-151.06,21.14,5.04,31.08,7.91,49.68,4.32-53.24-15.35-77.44-52.03-91.71-66.18-42.05-41.7-75.15-39.56-106.23-10.79-42.54-40.52-73.53-56.88-162.02-61.86-89.42-5.04-136.04,22.3-166.61,54.67-19.72,20.88-45.86,58.99-96.3,70.5,50.95,3.64,81.57-16.41,87.55-20.75-32.53,24.55-99.4,65.38-98.25,153.11,.87,66.33,14.71,98.8,12.95,141.07l.02,1.49c-3.8-1.27-7.87-1.53-13.14-.59-14.87,2.64-18.01,26.68-18.01,45.86s3.99,34.23,6.83,42.53c3.53,10.34,5.23,36.44,12.42,60.52,5.79,19.39,14.54,37.26,21.02,49.46,5.63,10.61,7.55,17.96,11.27,23.92,5.1,8.16,13.12,12.11,21.4,10.97,11.98-1.65,14.52-10.79,14.52-10.79,.96,8.81,5.94,26.91,9.69,46.17,6.5,33.32,7.77,62.96,65.1,106.64,24.44,18.62,81.86,45.88,100.8,60.83,26.36,20.79,47.56,22.41,68.13,21.15,3.26-.2,6.25-.33,9.52-.34,3.27,0,6.26,.13,9.52,.34,20.57,1.27,41.77-.36,68.13-21.15,18.95-14.95,76.11-42.21,100.55-60.83,57.33-43.68,54.98-73.32,61.48-106.64,3.76-19.25,8.74-37.36,9.69-46.17,0,0,2.55,9.14,14.52,10.79,8.28,1.14,16.3-2.81,21.4-10.97,3.72-5.96,5.64-13.31,11.27-23.92,6.48-12.19,15.22-30.06,21.02-49.46,7.19-24.07,8.89-50.18,12.42-60.52,2.84-8.3,6.83-23.35,6.83-42.53s-3.14-43.22-18.01-45.86Z"/><g><path class="cls-2" d="M1318.15,857.59c-3.26-.2-6.25-.33-9.52-.34-3.27,0-6.26,.13-9.52,.34-20.57,1.27-41.77-.36-68.13-21.15-.04-.03-.1-.07-.14-.11,25.75,20.95,47.42,22.67,67.87,21.41,3.26-.2,6.25-.33,9.52-.34,3.27,0,6.26,.13,9.52,.34,13.52,.83,27.3,.42,42.65-5.87-15.18,6.13-28.85,6.53-42.25,5.71Z"/><path class="cls-1" d="M2676.92,3071.24c-5.61-14.74-104.39-120.49-118.47-133.8-36.4-34.41-57.86-46.05-104.73-68.48-27.47-13.15-63.55-15.3-75.89-23.76-12.34-8.47-19.22-3.83-38.5-52.63-23.29-58.98-61.34-212.43-77.49-278.25-.72-3.11-1.41-6.11-2.07-9-6.37-27.65-14.68-54.8-24.9-81.27-52.92-137.03-135.07-306.18-137.6-366.21-3.28-77.75,12.97-198.01-10.97-327.7-17.48-94.69,0-146.69-3.99-234.48-11.86-260.93-179.87-324.11-299.62-362.08-28.08-8.9-270.29-78.69-284.44-137.1-13.9-57.35,4.29-180.18,15.42-244.53-7.08,7.46-15.86,15.3-26.84,23.66-24.44,18.62-81.6,45.88-100.55,60.83-9.19,7.25-17.75,12.16-25.88,15.44-15.34,6.28-29.13,6.7-42.65,5.87-3.26-.2-6.25-.33-9.52-.34-3.27,0-6.26,.13-9.52,.34-20.45,1.26-42.12-.46-67.87-21.41-19.08-14.97-76.28-42.15-100.66-60.72-12.88-9.81-22.92-18.91-30.83-27.5,7.33,63.09,15.74,189.24,1.67,248.37-9.62,40.46-57.18,48.25-126.76,77.17-115.98,48.19-274.65,98.97-309.92,121.02-96.29,60.21-155.56,116.63-142.78,328.93-4.8,75.01,35.42,128.76,17.94,223.45-23.94,129.69-7.98,261.38-7.98,339.19,0,60.09-74.95,232.55-122.06,371.68-9.1,26.87-16.26,54.35-21.46,82.25-13.44,72.08-39.55,213.54-60.34,273.44-17.2,49.57-24.28,45.23-36.25,54.2-11.97,8.98-47.93,12.64-74.82,26.94-45.89,24.39-66.84,36.91-101.76,72.83-13.5,13.89-107.74,123.71-112.73,138.67-4.99,14.96,.52,22.45,10.97,25.94,29.93,9.98,74.82-19.95,90.78-45.89,13.38-21.74,40.07-46.98,60.69-59.28,4.35-2.59,9.68,1.32,8.55,6.25-7.1,30.97-25.85,108.31-28.12,115.11-4.36,13.04-65.07,200.3-71.05,224.24-5.99,23.94-5.99,51.88,9.98,54.87,15.96,2.99,38.18-6.98,49.02-43.9,10.84-36.91,70.7-205.51,78.68-210.5,7.98-4.99-31.92,142.66-36.91,168.6-4.99,25.94-34.87,116.42,0,124.7,34.87,8.29,40.9-33.92,41.9-39.91,1-5.99,53.67-233.44,65.84-233.44,8.87,0-1.23,54.2-1,78.81,.31,32.58,2,133.68,2.99,145.65,1,11.97,7.98,26.94,28.93,25.94,20.95-1,27.93-26.94,27.93-70.83,0-38.89,4.7-140.43,17.56-185.28,.99-3.44,6.01-2.9,6.22,.67,2.53,42.31,9.55,147.23,12.13,156.68,2.99,10.97,10.75,32.48,29.93,25.94,14.93-5.09,21.95-25.94,19.95-60.85-2-34.92-4.99-137.67-2-154.63,2.99-16.96,24.94-87.79,30.93-146.65,2.55-25.11,.34-44.59,4.99-67.84,12.97-64.85,96.57-194.75,136.67-264.37,38.73-67.24,158.44-315.28,167.28-430.41,0-93.78,37.62-144.73,47.02-207.78,2.43-16.31,3.91-32.76,4.61-49.2,18.56,170.78,41.34,487.65,4.53,658.3-44.28,205.28-42.52,487.64-65.95,660.4-3.57,96.35-1.87,521.5,37.68,651.16,8.35,27.38-3.87,113.01-3.87,134.42s-1.89,54.9-14.87,164.46c-2.39,20.19-6.54,75.83-6.54,106.76s-59.48,190.33-57.1,349.73c2.38,159.4,54.72,380.66,64.24,449.65,9.52,68.99,53.68,268.84,41.78,299.77-11.9,30.93-20.32,57.08-22.7,76.11-2.38,19.03,2.52,45.22,4.9,54.74,2.38,23.79-40.02,121.33-49.54,137.99-9.52,16.65-78.51,126.09-89.22,147.51-10.71,21.41-8.33,49.96-5.95,55.91,2.38,5.95,11.9,22.6,30.93,7.14-1.95,26.17,44.01,19.15,44.01,19.15-2.38,15.35,10.71,35.57,24.98,35.57s26.34-2.38,30.93-15.46c1.85-5.29,12.17-36.57,14.72-46.71-4.84,24.25-14.11,61.81,5,67.53,22.13,6.62,31.45,7.73,47.68-7.73,6.64-6.32,8.4-23.46,9.17-41.57,1.52,28.36,10.74,60.16,45.55,56.24,24.43-2.75,49.95-20.53,62.55-58.98,2.89-8.83,42.82-30.33,46.39-55.31,3.57-24.98-13.38-82.08-14.27-109.74-.89-27.66,11.6-148.1,14.27-167.73,2.68-19.63,16.95-55.31,13.38-77.62-3.57-22.3-16.95-36.58-19.63-46.39-2.68-9.81-12.33-40.59-21.41-64.24-6.62-49.49,3.55-234.64,16.93-296.2,13.38-61.56,63.64-266.23,71.67-380.43,8.03-114.2-30.7-234.84-19.93-319.92,8.79-69.45,36.58-162.38,64.24-399.69,3.51-30.08,44.16-145.11,70.48-264.08,14.74-66.64,8.92-118.24,24.98-182.89,0,0,52.17-190.03,59.34-222.15,7.17-32.12,8.89-71.37,16.74-111.8,5.94,1.93,30.05,6.12,45.1-.41,7.84,40.43,9.57,73.42,16.74,105.54,7.17,32.12,59.34,222.15,59.34,222.15,16.06,64.65,10.24,116.25,24.98,182.89,26.32,118.98,66.98,234,70.48,264.08,27.66,237.32,55.45,330.24,64.24,399.69,10.77,85.09-27.96,205.72-19.93,319.92,8.03,114.2,58.29,318.87,71.67,380.43,13.38,61.56,30.94,266.76,25.87,296.2-2.23,12.98-18.74,54.42-21.41,64.24-2.68,9.81-16.06,24.09-19.63,46.39-3.57,22.3,10.71,57.99,13.38,77.62,2.68,19.63,15.17,140.07,14.27,167.73s-17.84,84.76-14.27,109.74c3.57,24.98,43.5,46.48,46.39,55.31,12.6,38.45,38.12,56.23,62.55,58.98,34.81,3.92,44.03-27.88,45.55-56.24,.77,18.11,2.53,35.24,9.17,41.57,16.23,15.46,25.56,14.35,47.68,7.73,19.11-5.71,9.84-43.27,5-67.53,2.55,10.14,12.87,41.42,14.72,46.71,4.59,13.08,16.65,15.46,30.93,15.46s27.36-20.22,24.98-35.57c0,0,45.97,7.02,44.01-19.15,19.03,15.46,28.55-1.19,30.93-7.14,2.38-5.95,4.76-34.5-5.95-55.91-10.71-21.41-79.7-130.85-89.22-147.51-9.52-16.65-51.92-114.2-49.54-137.99,2.38-9.52,7.28-35.71,4.9-54.74-2.38-19.03-10.8-45.19-22.7-76.11-11.9-30.93,57.63-315.23,67.15-384.23,9.52-68.99,37.1-221.26,39.48-380.66,2.38-159.4-66.66-303.34-66.66-334.27s-4.15-86.58-6.54-106.76c-12.98-109.56-14.87-143.04-14.87-164.46s-12.22-107.04-3.87-134.42c39.55-129.66,80.91-551.09,77.34-647.45,4-131.99-1.5-338.37-15.17-405.03-8.66-66.35-34.57-166.29-53.18-252.54-36.81-170.66-67.93-463.23-23.79-654.49,13.43,62.31,43.93,140.9,47.88,234.59,13.68,114.66,143.74,357.44,185.26,422.99,1.13,1.78,2.29,3.6,3.47,5.46,43,67.87,136.28,205.27,151.97,269.51,5.63,23.04,4.23,42.59,7.84,67.57,8.46,58.56,33.37,128.4,37.07,145.22,3.7,16.82,5.04,119.61,4.52,154.58-.52,34.97,7.37,55.5,22.5,59.96,19.44,5.73,26.28-16.09,28.81-27.18,2.18-9.55,4.77-114.67,5.52-157.05,.06-3.58,5.06-4.32,6.19-.93,14.74,44.27,23.71,145.52,25.35,184.37,1.85,43.86,9.92,69.48,30.89,69.59,20.97,.11,27.32-15.13,27.81-27.13,.49-12-2.08-113.09-3.14-145.65-.8-24.6-13.17-78.33-4.31-78.7,12.17-.51,74.36,224.53,75.61,230.46,1.25,5.94,9.05,47.85,43.54,38.11,34.49-9.75,.83-98.89-5.25-124.59-6.08-25.71-52.16-171.54-43.98-166.89,8.18,4.65,75.09,170.58,87.47,207,12.38,36.42,35,45.46,50.82,41.79,15.82-3.66,14.65-31.57,7.66-55.24-6.99-23.67-75.53-208.2-80.43-221.05-2.55-6.7-24.54-83.17-32.94-113.82-1.34-4.88,3.83-9.01,8.28-6.6,21.12,11.42,48.85,35.52,63.13,56.67,17.04,25.24,63.15,53.26,92.64,42.03,10.3-3.92,15.49-11.64,9.87-26.38Z"/></g></g></svg>